SplineFontDB: 3.2
FontName: tama-ka-Tumu
FullName: tama ka Tumu - pula
FamilyName: tama ka Tumu
Weight: Normal
Copyright: ka Ke Tami, based on "kiku upi ala", Copyright Kelsey Higham 2022, and drawings by ka Tumu
Version: 1.0
ItalicAngle: 0
UnderlinePosition: -119
UnderlineWidth: 35
Ascent: 1024
Descent: 0
InvalidEm: 0
sfntRevision: 0x00010000
LayerCount: 2
Layer: 0 1 "Hinten" 1
Layer: 1 1 "Vorne" 0
XUID: [1021 645 -1917317362 28313]
StyleMap: 0x0040
FSType: 0
OS2Version: 2
OS2_WeightWidthSlopeOnly: 0
OS2_UseTypoMetrics: 0
CreationTime: 1672212296
ModificationTime: 1673620761
PfmFamily: 81
TTFWeight: 400
TTFWidth: 5
LineGap: 0
VLineGap: 0
Panose: 0 0 0 0 0 0 0 0 0 0
OS2TypoAscent: 1024
OS2TypoAOffset: 0
OS2TypoDescent: 0
OS2TypoDOffset: 0
OS2TypoLinegap: 0
OS2WinAscent: 1024
OS2WinAOffset: 0
OS2WinDescent: 0
OS2WinDOffset: 0
HheadAscent: 1024
HheadAOffset: 0
HheadDescent: 0
HheadDOffset: 0
OS2SubXSize: 650
OS2SubYSize: 700
OS2SubXOff: 47
OS2SubYOff: 140
OS2SupXSize: 650
OS2SupYSize: 700
OS2SupXOff: -164
OS2SupYOff: 480
OS2StrikeYSize: 49
OS2StrikeYPos: 258
OS2CapHeight: 1024
OS2XHeight: 896
OS2Vendor: 'Bird'
OS2CodePages: 200900ff.dffd0000
OS2UnicodeRanges: 00000001.00000000.00000000.00000000
Lookup: 4 0 0 "'clig' Kontextuelle Ligaturen in Lateinisch Nachschlagetabelle 0" { "'clig' Kontextuelle Ligaturen in Lateinisch Nachschlagetabelle 0 Subtabelle"  } ['clig' ('DFLT' <'dflt' > 'latn' <'dflt' > ) ]
Lookup: 265 0 0 "'kern' Horizontale Unterschneidung Nachschlagetabelle 0" { } [' RQD' ('DFLT' <'dflt' > ) 'kern' ('DFLT' <'dflt' > ) ]
MarkAttachClasses: 1
DEI: 91125
ShortTable: maxp 16
  1
  0
  56
  104
  13
  0
  0
  1
  0
  0
  0
  0
  0
  0
  0
  0
EndShort

StartChar: .notdef
Encoding: 1114112 -1 0
Width: 543
GlyphClass: 1
Flags: W
LayerCount: 2
Fore
SplineSet
0 973 m 1,0,1
 102 973 102 973 410 973 c 1,2,3
 410 742 410 742 410 51 c 1,4,5
 307 51 307 51 0 51 c 1,6,7
 0 282 0 282 0 973 c 1,0,1
EndSplineSet
Validated: 1
EndChar

StartChar: period
Encoding: 46 46 4
Width: 1024
GlyphClass: 1
Flags: W
LayerCount: 2
Fore
SplineSet
463.427734375 372.145507812 m 4,0,1
 359.599609375 431.940429688 359.599609375 431.940429688 445.815429688 516.838867188 c 4,2,3
 483.079101562 553.459960938 483.079101562 553.459960938 520.09765625 546.01953125 c 4,4,5
 583.0390625 533.860351562 583.0390625 533.860351562 595.741210938 481.983398438 c 4,6,7
 616.358398438 402.540039062 616.358398438 402.540039062 546.55078125 371.188476562 c 4,8,9
 500.71875 349.62109375 500.71875 349.62109375 463.427734375 372.145507812 c 4,0,1
EndSplineSet
Validated: 524321
EndChar

StartChar: colon
Encoding: 58 58 5
Width: 1024
GlyphClass: 1
Flags: W
LayerCount: 2
Fore
SplineSet
463.427734375 552.145507812 m 4,0,1
 359.599609375 611.940429688 359.599609375 611.940429688 445.815429688 696.838867188 c 4,2,3
 483.079101562 733.459960938 483.079101562 733.459960938 520.09765625 726.01953125 c 4,4,5
 583.0390625 713.860351562 583.0390625 713.860351562 595.741210938 661.983398438 c 4,6,7
 616.358398438 582.540039062 616.358398438 582.540039062 546.55078125 551.188476562 c 4,8,9
 500.71875 529.62109375 500.71875 529.62109375 463.427734375 552.145507812 c 4,0,1
463.427734375 192.145507812 m 0,10,11
 360 252 360 252 445.815429688 336.838867188 c 0,12,13
 483 373 483 373 520.09765625 366.01953125 c 0,14,15
 583 354 583 354 595.741210938 301.983398438 c 0,16,17
 616 223 616 223 546.55078125 191.188476562 c 0,18,19
 501 170 501 170 463.427734375 192.145507812 c 0,10,11
EndSplineSet
Validated: 524321
EndChar

StartChar: bracketleft
Encoding: 91 91 6
Width: 764
GlyphClass: 1
Flags: W
LayerCount: 2
Fore
SplineSet
285 -252 m 5,0,1
 285 -252 285 -252 285 1082 c 5,2,3
 285 1082 285 1082 768 1082 c 5,4,5
 790 1082 790 1082 805 1067 c 132,-1,6
 820 1052 820 1052 820 1030 c 132,-1,7
 820 1008 820 1008 805 993 c 132,-1,8
 790 978 790 978 768 978 c 5,9,10
 768 978 768 978 384 978 c 5,11,12
 384 606 384 606 384 -148 c 5,13,14
 384 -148 384 -148 768 -148 c 5,15,16
 790 -148 790 -148 805 -163 c 132,-1,17
 820 -178 820 -178 820 -200 c 132,-1,18
 820 -222 820 -222 805 -237 c 132,-1,19
 790 -252 790 -252 768 -252 c 5,20,21
 768 -252 768 -252 285 -252 c 5,0,1
EndSplineSet
Validated: 1
EndChar

StartChar: bracketright
Encoding: 93 93 7
Width: 764
GlyphClass: 1
Flags: W
LayerCount: 2
Fore
SplineSet
482 -252 m 5,0,1
 482 -252 482 -252 482 1082 c 5,2,3
 482 1082 482 1082 -1 1082 c 5,4,5
 -23 1082 -23 1082 -38 1067 c 132,-1,6
 -53 1052 -53 1052 -53 1030 c 132,-1,7
 -53 1008 -53 1008 -38 993 c 132,-1,8
 -23 978 -23 978 -1 978 c 5,9,10
 -1 978 -1 978 383 978 c 5,11,12
 383 606 383 606 383 -148 c 5,13,14
 383 -148 383 -148 -1 -148 c 5,15,16
 -23 -148 -23 -148 -38 -163 c 132,-1,17
 -53 -178 -53 -178 -53 -200 c 132,-1,18
 -53 -222 -53 -222 -38 -237 c 132,-1,19
 -23 -252 -23 -252 -1 -252 c 5,20,21
 -1 -252 -1 -252 482 -252 c 5,0,1
EndSplineSet
Validated: 9
EndChar

StartChar: underscore
Encoding: 95 95 8
Width: 0
GlyphClass: 1
Flags: W
LayerCount: 2
Fore
SplineSet
-1025 1082 m 5,0,-1
 2 1082 l 5,1,2
 24 1082 24 1082 39 1067 c 132,-1,3
 54 1052 54 1052 54 1030 c 132,-1,4
 54 1008 54 1008 39 993 c 132,-1,5
 24 978 24 978 2 978 c 5,6,-1
 -1025 978 l 5,7,8
 -1047 978 -1047 978 -1062 993 c 132,-1,9
 -1077 1008 -1077 1008 -1077 1030 c 132,-1,10
 -1077 1052 -1077 1052 -1062 1067 c 132,-1,11
 -1047 1082 -1047 1082 -1025 1082 c 5,0,-1
-1025 -148 m 5,12,-1
 2 -148 l 5,13,14
 24 -148 24 -148 39 -163 c 132,-1,15
 54 -178 54 -178 54 -200 c 132,-1,16
 54 -222 54 -222 39 -237 c 132,-1,17
 24 -252 24 -252 2 -252 c 5,18,-1
 -1025 -252 l 5,19,20
 -1047 -252 -1047 -252 -1062 -237 c 132,-1,21
 -1077 -222 -1077 -222 -1077 -200 c 132,-1,22
 -1077 -178 -1077 -178 -1062 -163 c 132,-1,23
 -1047 -148 -1047 -148 -1025 -148 c 5,12,-1
EndSplineSet
Validated: 1
EndChar

StartChar: a
Encoding: 97 97 9
Width: 1024
GlyphClass: 1
Flags: W
LayerCount: 2
Fore
SplineSet
490.973632812 8.4921875 m 4,0,1
 438.32421875 38.681640625 438.32421875 38.681640625 481.98828125 82.3154296875 c 4,2,3
 500.704101562 101.0546875 500.704101562 101.0546875 519.88671875 97.2041015625 c 4,4,5
 551.893554688 90.80859375 551.893554688 90.80859375 558.48046875 64.5322265625 c 4,6,7
 568.650390625 24.0654296875 568.650390625 24.0654296875 533.383789062 8.00390625 c 4,8,9
 510.224609375 -2.55078125 510.224609375 -2.55078125 490.973632812 8.4921875 c 4,0,1
489.338867188 229.190429688 m 0,10,11
 475.39453125 234.795898438 475.39453125 234.795898438 469.317382812 250.771484375 c 0,12,13
 464.368164062 263.799804688 464.368164062 263.799804688 463.36328125 535.463867188 c 128,-1,14
 462.357421875 807.126953125 462.357421875 807.126953125 467.193359375 825.188476562 c 0,15,16
 475.80078125 857.296875 475.80078125 857.296875 524.19140625 857.296875 c 0,17,18
 561.807617188 857.296875 561.807617188 857.296875 561.807617188 536.551757812 c 0,19,20
 561.807617188 243.19140625 561.807617188 243.19140625 550.547851562 233.006835938 c 0,21,22
 528.814453125 213.34765625 528.814453125 213.34765625 489.338867188 229.190429688 c 0,10,11
EndSplineSet
Validated: 524321
EndChar

StartChar: i
Encoding: 105 105 10
Width: 1024
GlyphClass: 1
Flags: W
LayerCount: 2
Fore
SplineSet
468.326171875 207.096679688 m 4,0,1
 442.233398438 217.576171875 442.233398438 217.576171875 442.233398438 315.059570312 c 6,2,-1
 442.233398438 385.497070312 l 5,3,-1
 319.946289062 385.497070312 l 6,4,5
 165.89453125 385.497070312 165.89453125 385.497070312 152.298828125 410.913085938 c 4,6,7
 138.055664062 437.529296875 138.055664062 437.529296875 179.3125 468.119140625 c 4,8,9
 196.704101562 480.995117188 196.704101562 480.995117188 328.70703125 482.857421875 c 6,10,-1
 460.711914062 484.737304688 l 5,11,-1
 460.711914062 500.001953125 l 6,12,13
 460.711914062 515.254882812 460.711914062 515.254882812 469.942382812 537.374023438 c 132,-1,14
 479.19140625 559.455078125 479.19140625 559.455078125 479.19140625 583.787109375 c 4,15,16
 479.19140625 662.705078125 479.19140625 662.705078125 535.870117188 662.705078125 c 4,17,18
 578.501953125 662.705078125 578.501953125 662.705078125 648.587890625 610.163085938 c 4,19,20
 667.099609375 596.26953125 667.099609375 596.26953125 686.22265625 592.247070312 c 132,-1,21
 705.392578125 588.173828125 705.392578125 588.173828125 723.181640625 569.462890625 c 132,-1,22
 741.001953125 550.71875 741.001953125 550.71875 758.448242188 541.602539062 c 132,-1,23
 775.803710938 532.55078125 775.803710938 532.55078125 813.885742188 499.024414062 c 4,24,25
 851.681640625 465.684570312 851.681640625 465.684570312 862.650390625 456.313476562 c 4,26,27
 883.805664062 438.211914062 883.805664062 438.211914062 869.737304688 401.513671875 c 4,28,29
 866.009765625 391.87109375 866.009765625 391.87109375 788.112304688 347.5234375 c 132,-1,30
 710.291015625 303.220703125 710.291015625 303.220703125 646.23828125 259.640625 c 4,31,32
 582.616210938 216.318359375 582.616210938 216.318359375 569.23828125 208.487304688 c 4,33,34
 557.953125 201.915039062 557.953125 201.915039062 520.861328125 201.3984375 c 132,-1,35
 483.770507812 200.8828125 483.770507812 200.8828125 468.326171875 207.096679688 c 4,0,1
615.577148438 368.259765625 m 6,36,-1
 627.87109375 385.497070312 l 5,37,-1
 584.333007812 385.497070312 l 5,38,-1
 540.794921875 385.497070312 l 5,39,-1
 540.794921875 351.24609375 l 5,40,-1
 540.794921875 316.9765625 l 5,41,-1
 572.0390625 333.98828125 l 6,42,43
 603.337890625 351.041992188 603.337890625 351.041992188 615.577148438 368.259765625 c 6,36,-1
676.296875 388.580078125 m 132,-1,45
 676.296875 397.829101562 676.296875 397.829101562 661.107421875 397.829101562 c 132,-1,46
 645.890625 397.829101562 645.890625 397.829101562 649.43359375 388.580078125 c 132,-1,47
 652.989257812 379.3515625 652.989257812 379.3515625 664.641601562 379.3515625 c 132,-1,44
 676.296875 379.3515625 676.296875 379.3515625 676.296875 388.580078125 c 132,-1,45
663.852539062 488.685546875 m 132,-1,49
 663.71484375 493.330078125 663.71484375 493.330078125 623.397460938 512.258789062 c 6,50,-1
 583.07421875 531.225585938 l 5,51,-1
 571.04296875 507.65234375 l 5,52,-1
 559.01171875 484.060546875 l 5,53,-1
 611.498046875 484.060546875 l 6,54,48
 663.989257812 484.060546875 663.989257812 484.060546875 663.852539062 488.685546875 c 132,-1,49
583.901367188 561.717773438 m 6,55,-1
 574.670898438 564.143554688 l 5,56,-1
 574.670898438 555.759765625 l 5,57,58
 583.901367188 559.314453125 583.901367188 559.314453125 583.901367188 561.717773438 c 6,55,-1
EndSplineSet
Validated: 524321
EndChar

StartChar: k
Encoding: 107 107 11
Width: 1024
GlyphClass: 1
Flags: W
LayerCount: 2
Fore
SplineSet
640 128 m 1,0,1
 640 160 640 160 640 256 c 1,2,3
 672 256 672 256 768 256 c 1,4,5
 768 224 768 224 768 128 c 1,6,7
 736 128 736 128 640 128 c 1,0,1
512 256 m 1,8,9
 512 288 512 288 512 384 c 1,10,11
 544 384 544 384 640 384 c 1,12,13
 640 352 640 352 640 256 c 1,14,15
 608 256 608 256 512 256 c 1,8,9
512 512 m 1,16,17
 512 544 512 544 512 640 c 1,18,19
 544 640 544 640 640 640 c 1,20,21
 640 608 640 608 640 512 c 1,22,23
 608 512 608 512 512 512 c 1,16,17
128 128 m 1,24,25
 128 288 128 288 128 768 c 1,26,27
 160 768 160 768 256 768 c 1,28,29
 256 704 256 704 256 512 c 1,30,31
 320 512 320 512 512 512 c 1,32,33
 512 480 512 480 512 384 c 1,34,35
 448 384 448 384 256 384 c 1,36,37
 256 320 256 320 256 128 c 1,38,39
 224 128 224 128 128 128 c 1,24,25
640 640 m 1,40,41
 640 672 640 672 640 768 c 1,42,43
 672 768 672 768 768 768 c 1,44,45
 768 736 768 736 768 640 c 1,46,47
 736 640 736 640 640 640 c 1,40,41
EndSplineSet
Validated: 5
EndChar

StartChar: l
Encoding: 108 108 12
Width: 1024
GlyphClass: 1
Flags: W
LayerCount: 2
Fore
SplineSet
128 128 m 1,0,1
 128 160 128 160 128 256 c 1,2,3
 160 256 160 256 256 256 c 1,4,5
 256 352 256 352 256 640 c 1,6,7
 224 640 224 640 128 640 c 1,8,9
 128 672 128 672 128 768 c 1,10,11
 224 768 224 768 512 768 c 1,12,13
 512 736 512 736 512 640 c 1,14,15
 480 640 480 640 384 640 c 1,16,17
 384 544 384 544 384 256 c 1,18,19
 448 256 448 256 640 256 c 1,20,21
 640 288 640 288 640 384 c 1,22,23
 672 384 672 384 768 384 c 1,24,25
 768 320 768 320 768 128 c 1,26,27
 608 128 608 128 128 128 c 1,0,1
EndSplineSet
Validated: 1
EndChar

StartChar: m
Encoding: 109 109 13
Width: 1024
GlyphClass: 1
Flags: W
LayerCount: 2
Fore
SplineSet
384 384 m 1,0,1
 384 416 384 416 384 512 c 1,2,3
 416 512 416 512 512 512 c 1,4,5
 512 480 512 480 512 384 c 1,6,7
 480 384 480 384 384 384 c 1,0,1
128 128 m 1,8,9
 128 288 128 288 128 768 c 1,10,11
 160 768 160 768 256 768 c 1,12,13
 256 736 256 736 256 640 c 1,14,15
 288 640 288 640 384 640 c 1,16,17
 384 608 384 608 384 512 c 1,18,19
 352 512 352 512 256 512 c 1,20,21
 256 416 256 416 256 128 c 1,22,23
 224 128 224 128 128 128 c 1,8,9
640 128 m 1,24,25
 640 224 640 224 640 512 c 1,26,27
 608 512 608 512 512 512 c 1,28,29
 512 544 512 544 512 640 c 1,30,31
 544 640 544 640 640 640 c 1,32,33
 640 672 640 672 640 768 c 1,34,35
 672 768 672 768 768 768 c 1,36,37
 768 608 768 608 768 128 c 1,38,39
 736 128 736 128 640 128 c 1,24,25
EndSplineSet
Validated: 5
EndChar

StartChar: p
Encoding: 112 112 14
Width: 1024
GlyphClass: 1
Flags: W
LayerCount: 2
Fore
SplineSet
640 512 m 1,0,1
 640 544 640 544 640 640 c 1,2,3
 672 640 672 640 768 640 c 1,4,5
 768 608 768 608 768 512 c 1,6,7
 736 512 736 512 640 512 c 1,0,1
128 128 m 1,8,9
 128 160 128 160 128 256 c 1,10,11
 160 256 160 256 256 256 c 1,12,13
 256 352 256 352 256 640 c 1,14,15
 224 640 224 640 128 640 c 1,16,17
 128 672 128 672 128 768 c 1,18,19
 256 768 256 768 640 768 c 1,20,21
 640 736 640 736 640 640 c 1,22,23
 576 640 576 640 384 640 c 1,24,25
 384 608 384 608 384 512 c 1,26,27
 448 512 448 512 640 512 c 1,28,29
 640 480 640 480 640 384 c 1,30,31
 576 384 576 384 384 384 c 1,32,33
 384 352 384 352 384 256 c 1,34,35
 416 256 416 256 512 256 c 1,36,37
 512 224 512 224 512 128 c 1,38,39
 416 128 416 128 128 128 c 1,8,9
EndSplineSet
Validated: 5
EndChar

StartChar: t
Encoding: 116 116 15
Width: 1024
GlyphClass: 1
Flags: W
LayerCount: 2
Fore
SplineSet
256 128 m 1,0,1
 256 160 256 160 256 256 c 1,2,3
 288 256 288 256 384 256 c 1,4,5
 384 352 384 352 384 640 c 1,6,7
 352 640 352 640 256 640 c 1,8,9
 256 608 256 608 256 512 c 1,10,11
 224 512 224 512 128 512 c 1,12,13
 128 576 128 576 128 768 c 1,14,15
 288 768 288 768 768 768 c 1,16,17
 768 704 768 704 768 512 c 1,18,19
 736 512 736 512 640 512 c 1,20,21
 640 544 640 544 640 640 c 1,22,23
 608 640 608 640 512 640 c 1,24,25
 512 544 512 544 512 256 c 1,26,27
 544 256 544 256 640 256 c 1,28,29
 640 224 640 224 640 128 c 1,30,31
 544 128 544 128 256 128 c 1,0,1
EndSplineSet
Validated: 1
EndChar

StartChar: u
Encoding: 117 117 16
Width: 1024
GlyphClass: 1
Flags: W
LayerCount: 2
Fore
SplineSet
256 128 m 1,0,1
 256 160 256 160 256 256 c 1,2,3
 320 256 320 256 512 256 c 1,4,5
 512 224 512 224 512 128 c 1,6,7
 448 128 448 128 256 128 c 1,0,1
128 256 m 1,8,9
 128 384 128 384 128 768 c 1,10,11
 160 768 160 768 256 768 c 1,12,13
 256 640 256 640 256 256 c 1,14,15
 224 256 224 256 128 256 c 1,8,9
640 128 m 1,16,17
 640 160 640 160 640 256 c 1,18,19
 608 256 608 256 512 256 c 1,20,21
 512 288 512 288 512 384 c 1,22,23
 544 384 544 384 640 384 c 1,24,25
 640 480 640 480 640 768 c 1,26,27
 672 768 672 768 768 768 c 1,28,29
 768 608 768 608 768 128 c 1,30,31
 736 128 736 128 640 128 c 1,16,17
EndSplineSet
Validated: 5
EndChar

StartChar: ala
Encoding: 1114113 -1 18
Width: 1024
GlyphClass: 1
Flags: W
LayerCount: 2
Fore
SplineSet
235.333007812 106.876953125 m 4,0,1
 210.5703125 154.77734375 210.5703125 154.77734375 251.5 218.391601562 c 4,2,3
 277.095703125 258.153320312 277.095703125 258.153320312 303.34765625 286.555664062 c 132,-1,4
 329.607421875 314.966796875 329.607421875 314.966796875 346.15234375 348.159179688 c 132,-1,5
 362.671875 381.334960938 362.671875 381.334960938 396.665039062 416.080078125 c 6,6,-1
 430.633789062 450.857421875 l 5,7,8
 393.982421875 458.9140625 393.982421875 458.9140625 376.173828125 477.645507812 c 132,-1,9
 358.419921875 496.389648438 358.419921875 496.389648438 336.809570312 507.5546875 c 132,-1,10
 315.274414062 518.698242188 315.274414062 518.698242188 301.317382812 533.647460938 c 132,-1,11
 287.383789062 548.571289062 287.383789062 548.571289062 235.295898438 581.998046875 c 4,12,13
 163.778320312 627.856445312 163.778320312 627.856445312 172.977539062 664.430664062 c 4,14,15
 189.973632812 732.19140625 189.973632812 732.19140625 260.448242188 690.749023438 c 4,16,17
 356.197265625 634.465820312 356.197265625 634.465820312 416.065429688 581.095703125 c 4,18,19
 476.993164062 526.779296875 476.993164062 526.779296875 492.313476562 536.2421875 c 4,20,21
 497.404296875 539.385742188 497.404296875 539.385742188 548.87890625 642.060546875 c 4,22,23
 641.801757812 827.440429688 641.801757812 827.440429688 705.98046875 794.255859375 c 4,24,25
 776.315429688 757.895507812 776.315429688 757.895507812 700.190429688 689.301757812 c 4,26,27
 688.95703125 679.182617188 688.95703125 679.182617188 636.090820312 575.991210938 c 132,-1,28
 583.224609375 472.799804688 583.224609375 472.799804688 583.224609375 461.008789062 c 4,29,30
 583.224609375 413.58984375 583.224609375 413.58984375 675.620117188 365.774414062 c 4,31,32
 697.247070312 354.600585938 697.247070312 354.600585938 721.809570312 328.947265625 c 132,-1,33
 746.505859375 303.223632812 746.505859375 303.223632812 768.016601562 292.0078125 c 4,34,35
 892.885742188 226.783203125 892.885742188 226.783203125 832.251953125 166.149414062 c 4,36,37
 822.944335938 156.841796875 822.944335938 156.841796875 795.170898438 156.65625 c 132,-1,38
 767.3984375 156.469726562 767.3984375 156.469726562 749.744140625 165.604492188 c 132,-1,39
 732.07421875 174.755859375 732.07421875 174.755859375 728.125976562 192.75 c 132,-1,40
 724.166992188 210.760742188 724.166992188 210.760742188 707.78515625 214.875976562 c 132,-1,41
 691.408203125 218.978515625 691.408203125 218.978515625 665.16796875 243.16796875 c 132,-1,42
 638.907226562 267.34375 638.907226562 267.34375 632.646484375 267.34375 c 132,-1,43
 626.319335938 267.34375 626.319335938 267.34375 567.884765625 323.043945312 c 132,-1,44
 509.423828125 378.744140625 509.423828125 378.744140625 498.516601562 372.8984375 c 132,-1,45
 487.58984375 367.041992188 487.58984375 367.041992188 459.959960938 322.57421875 c 132,-1,46
 432.24609375 278.059570312 432.24609375 278.059570312 399.653320312 241.645507812 c 132,-1,47
 367.053710938 205.255859375 367.053710938 205.255859375 338.689453125 160.810546875 c 4,48,49
 292.708984375 88.716796875 292.708984375 88.716796875 265.053710938 88.716796875 c 4,50,51
 244.741210938 88.716796875 244.741210938 88.716796875 235.333007812 106.876953125 c 4,0,1
EndSplineSet
Validated: 524321
LCarets2: 2 0 0
Ligature2: "'clig' Kontextuelle Ligaturen in Lateinisch Nachschlagetabelle 0 Subtabelle" a l a
EndChar

StartChar: iku
Encoding: 1114114 -1 19
Width: 1024
GlyphClass: 1
Flags: W
LayerCount: 2
Fore
SplineSet
323.41015625 185.440429688 m 6,0,1
 255.819335938 219.638671875 255.819335938 219.638671875 226.971679688 264.415039062 c 132,-1,2
 198.18359375 309.1328125 198.18359375 309.1328125 191.5546875 326.544921875 c 132,-1,3
 184.994140625 343.869140625 184.994140625 343.869140625 184.994140625 434.525390625 c 132,-1,4
 184.994140625 525.143554688 184.994140625 525.143554688 194.46875 538.689453125 c 132,-1,5
 203.963867188 552.215820312 203.963867188 552.215820312 193.791992188 567.733398438 c 132,-1,6
 183.6328125 583.241210938 183.6328125 583.241210938 187.55078125 598.827148438 c 4,7,8
 198.845703125 643.956054688 198.845703125 643.956054688 249.135742188 670.939453125 c 4,9,10
 326.90625 712.69140625 326.90625 712.69140625 373.602539062 712.69140625 c 4,11,12
 386.76953125 712.69140625 386.76953125 712.69140625 408.888671875 721.921875 c 132,-1,13
 430.987304688 731.170898438 430.987304688 731.170898438 474.514648438 731.170898438 c 132,-1,14
 518.04296875 731.170898438 518.04296875 731.170898438 540.141601562 721.921875 c 132,-1,15
 562.260742188 712.69140625 562.260742188 712.69140625 589.526367188 712.69140625 c 132,-1,16
 616.774414062 712.69140625 616.774414062 712.69140625 633.440429688 704.307617188 c 132,-1,17
 650.010742188 695.9375 650.010742188 695.9375 676.809570312 691.825195312 c 4,18,19
 744.000976562 681.529296875 744.000976562 681.529296875 809.698242188 587.641601562 c 6,20,-1
 839.005859375 545.7578125 l 5,21,-1
 836.9375 445.973632812 l 6,22,23
 834.8671875 346.139648438 834.8671875 346.139648438 818.477539062 318.442382812 c 4,24,25
 758.600585938 217.134765625 758.600585938 217.134765625 665.473632812 166.830078125 c 4,26,27
 643.916992188 155.208007812 643.916992188 155.208007812 517.451171875 153.23828125 c 6,28,-1
 390.9921875 151.264648438 l 5,29,-1
 323.41015625 185.440429688 l 6,0,1
613.607421875 265.354492188 m 132,-1,31
 650.063476562 280.037109375 650.063476562 280.037109375 663.913085938 300.11328125 c 4,32,33
 677.591796875 319.971679688 677.591796875 319.971679688 699.537109375 346.809570312 c 4,34,35
 739.390625 395.422851562 739.390625 395.422851562 739.390625 455.993164062 c 4,36,37
 739.390625 495.409179688 739.390625 495.409179688 722.453125 517.653320312 c 4,38,39
 705.708007812 539.631835938 705.708007812 539.631835938 688.74609375 564.538085938 c 4,40,41
 671.948242188 589.178710938 671.948242188 589.178710938 654.87109375 592.7734375 c 132,-1,42
 637.787109375 596.388671875 637.787109375 596.388671875 617.517578125 605.255859375 c 132,-1,43
 597.314453125 614.12890625 597.314453125 614.12890625 567.418945312 614.12890625 c 132,-1,44
 537.48828125 614.12890625 537.48828125 614.12890625 505.401367188 624.505859375 c 6,45,-1
 473.274414062 634.8828125 l 5,46,-1
 404.038085938 612.098632812 l 6,47,48
 334.833007812 589.314453125 334.833007812 589.314453125 322 575.53515625 c 4,49,50
 283.556640625 534.196289062 283.556640625 534.196289062 283.556640625 443.811523438 c 4,51,52
 283.556640625 346.221679688 283.556640625 346.221679688 336.663085938 295.846679688 c 4,53,54
 383.03515625 251.853515625 383.03515625 251.853515625 496.56640625 251.180664062 c 4,55,30
 577.162109375 250.69140625 577.162109375 250.69140625 613.607421875 265.354492188 c 132,-1,31
EndSplineSet
Validated: 524321
LCarets2: 2 0 0
Ligature2: "'clig' Kontextuelle Ligaturen in Lateinisch Nachschlagetabelle 0 Subtabelle" i k u
EndChar

StartChar: ilu
Encoding: 1114115 -1 20
Width: 1024
GlyphClass: 1
Flags: W
LayerCount: 2
Fore
SplineSet
487.350585938 107.536132812 m 0,0,1
 473.380859375 113.151367188 473.380859375 113.151367188 467.330078125 129.1171875 c 0,2,3
 460.408203125 147.3359375 460.408203125 147.3359375 461.591796875 194.495117188 c 128,-1,4
 462.774414062 241.655273438 462.774414062 241.655273438 470.48828125 255.1640625 c 0,5,6
 480.244140625 272.223632812 480.244140625 272.223632812 480.244140625 388.602539062 c 128,-1,7
 480.244140625 504.981445312 480.244140625 504.981445312 470.48828125 528.329101562 c 0,8,9
 461.2578125 550.448242188 461.2578125 550.448242188 461.2578125 569.405273438 c 0,10,11
 461.2578125 652.245117188 461.2578125 652.245117188 358.672851562 609.352539062 c 0,12,13
 338.581054688 600.963867188 338.581054688 600.963867188 260.68359375 600.01171875 c 128,-1,14
 182.786132812 599.059570312 182.786132812 599.059570312 160.212890625 606.927734375 c 0,15,16
 120.173828125 620.87890625 120.173828125 620.87890625 136.038085938 653.905273438 c 0,17,18
 157.580078125 698.684570312 157.580078125 698.684570312 202.698242188 698.684570312 c 0,19,20
 219.51171875 698.684570312 219.51171875 698.684570312 241.630859375 707.915039062 c 128,-1,21
 263.712890625 717.1640625 263.712890625 717.1640625 284.717773438 717.1640625 c 128,-1,22
 305.682617188 717.1640625 305.682617188 717.1640625 331.903320312 726.393554688 c 128,-1,23
 358.045898438 735.642578125 358.045898438 735.642578125 391.588867188 735.642578125 c 128,-1,24
 425.138671875 735.642578125 425.138671875 735.642578125 438.567382812 742.936523438 c 128,-1,25
 452.014648438 750.224609375 452.014648438 750.224609375 498.215820312 754.666992188 c 0,26,27
 564.337890625 761.010742188 564.337890625 761.010742188 618.340820312 780.139648438 c 0,28,29
 636.83984375 786.716796875 636.83984375 786.716796875 695.340820312 791.193359375 c 128,-1,30
 753.82421875 795.703125 753.82421875 795.703125 771.194335938 802.623046875 c 0,31,32
 809.598632812 817.973632812 809.598632812 817.973632812 855.543945312 799.578125 c 0,33,34
 892.46484375 784.814453125 892.46484375 784.814453125 892.46484375 748.801757812 c 0,35,36
 892.46484375 710.998046875 892.46484375 710.998046875 854.661132812 710.998046875 c 0,37,38
 836.162109375 710.998046875 836.162109375 710.998046875 822.758789062 703.290039062 c 128,-1,39
 809.279296875 695.592773438 809.279296875 695.592773438 744.612304688 691.766601562 c 0,40,41
 670.340820312 687.393554688 670.340820312 687.393554688 596.778320312 664.2265625 c 0,42,43
 568.98828125 655.48828125 568.98828125 655.48828125 555.044921875 655.522460938 c 128,-1,44
 541.018554688 655.561523438 541.018554688 655.561523438 550.420898438 637.381835938 c 128,-1,45
 559.822265625 619.194335938 559.822265625 619.194335938 560.026367188 601.96484375 c 128,-1,46
 560.265625 584.7265625 560.265625 584.7265625 569.049804688 569.310546875 c 0,47,48
 578.947265625 552.01171875 578.947265625 552.01171875 578.947265625 394.923828125 c 128,-1,49
 578.947265625 237.8359375 578.947265625 237.8359375 569.049804688 214.163085938 c 0,50,51
 559.8203125 192.044921875 559.8203125 192.044921875 559.8203125 156.282226562 c 128,-1,52
 559.8203125 120.526367188 559.8203125 120.526367188 550.138671875 110.844726562 c 0,53,54
 529.778320312 90.4853515625 529.778320312 90.4853515625 487.350585938 107.536132812 c 0,0,1
EndSplineSet
LCarets2: 2 0 0
Ligature2: "'clig' Kontextuelle Ligaturen in Lateinisch Nachschlagetabelle 0 Subtabelle" i l u
EndChar

StartChar: ka
Encoding: 1114116 -1 21
Width: 1024
GlyphClass: 1
Flags: W
LayerCount: 2
Fore
SplineSet
520.515625 105.81640625 m 132,-1,1
 499.845703125 114.821289062 499.845703125 114.821289062 474.30859375 114.821289062 c 132,-1,2
 448.850585938 114.821289062 448.850585938 114.821289062 409.791015625 133.299804688 c 132,-1,3
 370.749023438 151.779296875 370.749023438 151.779296875 353.807617188 151.779296875 c 132,-1,4
 336.883789062 151.779296875 336.883789062 151.779296875 272.728515625 182.985351562 c 132,-1,5
 208.594726562 214.20703125 208.594726562 214.20703125 169.635742188 252.296875 c 4,6,7
 113.102539062 307.557617188 113.102539062 307.557617188 113.1640625 374.771484375 c 4,8,9
 113.270507812 510.63671875 113.270507812 510.63671875 242.10546875 645.643554688 c 4,10,11
 294.10546875 700.129882812 294.10546875 700.129882812 343.75 724.166015625 c 4,12,13
 436.791992188 769.239257812 436.791992188 769.239257812 560.989257812 766.764648438 c 4,14,15
 670.48828125 764.580078125 670.48828125 764.580078125 768.434570312 704.27734375 c 4,16,17
 820.118164062 672.471679688 820.118164062 672.471679688 856.920898438 620.05859375 c 4,18,19
 910.8359375 543.27734375 910.8359375 543.27734375 910.8359375 404.341796875 c 6,20,-1
 910.8359375 290.3828125 l 5,21,-1
 891.19140625 252.766601562 l 6,22,23
 844.509765625 163.501953125 844.509765625 163.501953125 759.03515625 120.536132812 c 6,24,-1
 710.91015625 96.341796875 l 5,25,-1
 626.071289062 96.5859375 l 6,26,0
 541.278320312 96.8232421875 541.278320312 96.8232421875 520.515625 105.81640625 c 132,-1,1
729.934570312 225.696289062 m 132,-1,28
 776.948242188 253.416992188 776.948242188 253.416992188 796.520507812 298.7109375 c 132,-1,29
 816.084960938 343.990234375 816.084960938 343.990234375 813.87109375 412.669921875 c 132,-1,30
 811.651367188 481.346679688 811.651367188 481.346679688 798.587890625 513.807617188 c 4,31,32
 767.154296875 591.967773438 767.154296875 591.967773438 709.951171875 623.028320312 c 4,33,34
 675.940429688 641.467773438 675.940429688 641.467773438 658.555664062 655.362304688 c 132,-1,35
 641.232421875 669.216796875 641.232421875 669.216796875 565.275390625 669.216796875 c 4,36,37
 473.443359375 669.216796875 473.443359375 669.216796875 386.649414062 629.36328125 c 4,38,39
 298.744140625 588.998046875 298.744140625 588.998046875 285.09765625 537.663085938 c 4,40,41
 278.290039062 512.10546875 278.290039062 512.10546875 262.55859375 491.32421875 c 4,42,43
 211.919921875 424.399414062 211.919921875 424.399414062 211.70703125 372.120117188 c 4,44,45
 211.673828125 367.637695312 211.673828125 367.637695312 252.970703125 323.844726562 c 4,46,47
 322.287109375 250.341796875 322.287109375 250.341796875 369.072265625 250.341796875 c 4,48,49
 385.225585938 250.341796875 385.225585938 250.341796875 427.2734375 231.862304688 c 132,-1,50
 469.375976562 213.375 469.375976562 213.375 492.994140625 213.1015625 c 132,-1,51
 516.559570312 212.828125 516.559570312 212.828125 535.084960938 204.096679688 c 132,-1,52
 553.579101562 195.358398438 553.579101562 195.358398438 618.250976562 196.670898438 c 132,-1,27
 682.939453125 197.987304688 682.939453125 197.987304688 729.934570312 225.696289062 c 132,-1,28
378.095703125 381.463867188 m 4,53,54
 338.954101562 401.266601562 338.954101562 401.266601562 362.849609375 445.624023438 c 4,55,56
 384.365234375 485.58203125 384.365234375 485.58203125 427.043945312 490.005859375 c 132,-1,57
 469.720703125 494.4296875 469.720703125 494.4296875 482.41015625 458.012695312 c 4,58,59
 500.930664062 404.946289062 500.930664062 404.946289062 479.196289062 383.211914062 c 4,60,61
 470.212890625 374.228515625 470.212890625 374.228515625 432.600585938 373.575195312 c 132,-1,62
 394.98828125 372.920898438 394.98828125 372.920898438 378.095703125 381.463867188 c 4,53,54
581.38671875 381.463867188 m 4,63,64
 566.123046875 389.163085938 566.123046875 389.163085938 560.086914062 406.240234375 c 4,65,66
 545.413085938 447.9921875 545.413085938 447.9921875 596.651367188 479.254882812 c 4,67,68
 623.791015625 495.795898438 623.791015625 495.795898438 662.186523438 488.55078125 c 132,-1,69
 700.581054688 481.306640625 700.581054688 481.306640625 706.69921875 458.482421875 c 4,70,71
 721.3671875 403.65234375 721.3671875 403.65234375 700.965820312 383.211914062 c 4,72,73
 691.884765625 374.145507812 691.884765625 374.145507812 645.22265625 373.461914062 c 132,-1,74
 598.559570312 372.779296875 598.559570312 372.779296875 581.38671875 381.463867188 c 4,63,64
EndSplineSet
Validated: 524321
LCarets2: 1 0
Ligature2: "'clig' Kontextuelle Ligaturen in Lateinisch Nachschlagetabelle 0 Subtabelle" k a
EndChar

StartChar: kati
Encoding: 1114117 -1 22
Width: 1024
GlyphClass: 1
Flags: W
LayerCount: 2
Fore
SplineSet
482.655273438 -6.7470703125 m 0,0,1
 468.756835938 -0.7958984375 468.756835938 -0.7958984375 462.633789062 14.833984375 c 128,-1,2
 456.5625 30.451171875 456.5625 30.451171875 456.5625 196.693359375 c 2,3,-1
 456.5625 362.59375 l 1,4,-1
 435.883789062 385.715820312 l 2,5,6
 414.856445312 409.614257812 414.856445312 409.614257812 397.383789062 435.984375 c 0,7,8
 362.497070312 489.693359375 362.497070312 489.693359375 311.791992188 566.5234375 c 0,9,10
 287.037109375 604.423828125 287.037109375 604.423828125 251.73046875 643.391601562 c 0,11,12
 216.196289062 682.963867188 216.196289062 682.963867188 216.313476562 689.110351562 c 0,13,14
 216.196289062 695.284179688 216.196289062 695.284179688 179.354492188 735.317382812 c 0,15,16
 142.276367188 775.364257812 142.276367188 775.364257812 142.396484375 793.688476562 c 0,17,18
 142.276367188 831.57421875 142.276367188 831.57421875 188.125 841.424804688 c 0,19,20
 233.90625 850.82421875 233.90625 850.82421875 252.237304688 817.186523438 c 0,21,22
 262.396484375 798.463867188 262.396484375 798.463867188 288.688476562 768.083984375 c 0,23,24
 314.756835938 737.633789062 314.756835938 737.633789062 314.875 731.971679688 c 0,25,26
 314.756835938 726.083984375 314.756835938 726.083984375 348.58203125 689.317382812 c 0,27,28
 382.516601562 652.93359375 382.516601562 652.93359375 385.897460938 638.221679688 c 0,29,30
 389.446289062 623.673828125 389.446289062 623.673828125 407.12109375 617.129882812 c 128,-1,31
 424.866210938 610.583984375 424.866210938 610.583984375 435.939453125 578.967773438 c 0,32,33
 447.196289062 547.443359375 447.196289062 547.443359375 451.84375 547.442382812 c 128,-1,34
 456.436523438 547.443359375 456.436523438 547.443359375 456.5625 701.743164062 c 0,35,36
 456.436523438 898.563476562 456.436523438 898.563476562 515.139648438 898.547851562 c 0,37,38
 543.46484375 898.563476562 543.46484375 898.563476562 555.124023438 740.280273438 c 2,39,-1
 564.768554688 609.365234375 l 1,40,41
 574.247070312 617.513671875 574.247070312 617.513671875 584.07421875 636.3046875 c 0,42,43
 593.497070312 655.244140625 593.497070312 655.244140625 617.536132812 681.271484375 c 0,44,45
 641.236328125 707.603515625 641.236328125 707.603515625 641.354492188 714.48828125 c 0,46,47
 641.236328125 722.233398438 641.236328125 722.233398438 702.103515625 783.438476562 c 128,-1,48
 762.896484375 844.6640625 762.896484375 844.6640625 778.116210938 852.904296875 c 0,49,50
 819.876953125 874.693359375 819.876953125 874.693359375 863.424804688 852.190429688 c 0,51,52
 881.4765625 843.124023438 881.4765625 843.124023438 881.603515625 822.431640625 c 0,53,54
 881.4765625 802.313476562 881.4765625 802.313476562 836.9375 758.891601562 c 0,55,56
 792.15625 716.07421875 792.15625 716.07421875 775.333984375 711.537109375 c 0,57,58
 758.276367188 707.603515625 758.276367188 707.603515625 758.396484375 699.243164062 c 0,59,60
 758.276367188 633.68359375 758.276367188 633.68359375 698.822265625 618.577148438 c 0,61,62
 685.126953125 615.204101562 685.126953125 615.204101562 681.546875 597.353515625 c 0,63,64
 677.426757812 579.784179688 677.426757812 579.784179688 665.624023438 568.647460938 c 0,65,66
 653.556640625 557.454101562 653.556640625 557.454101562 646.881835938 532.590820312 c 0,67,68
 640.466796875 507.404296875 640.466796875 507.404296875 606.877929688 472.434570312 c 0,69,70
 573.4765625 437.333984375 573.4765625 437.333984375 573.603515625 418.33203125 c 0,71,72
 573.4765625 399.603515625 573.4765625 399.603515625 564.354492188 377.086914062 c 0,73,74
 554.997070312 354.943359375 554.997070312 354.943359375 555.124023438 180.6015625 c 0,75,76
 554.997070312 6.1337890625 554.997070312 6.1337890625 545.443359375 -3.4384765625 c 0,77,78
 524.196289062 -24.666015625 524.196289062 -24.666015625 482.655273438 -6.7470703125 c 0,0,1
EndSplineSet
Validated: 524321
LCarets2: 3 0 0 0
Ligature2: "'clig' Kontextuelle Ligaturen in Lateinisch Nachschlagetabelle 0 Subtabelle" k a t i
EndChar

StartChar: ki
Encoding: 1114118 -1 23
Width: 1024
GlyphClass: 1
Flags: W
LayerCount: 2
Fore
SplineSet
371.186523438 -110.080078125 m 4,0,1
 303.779296875 -67.7802734375 303.779296875 -67.7802734375 250.291015625 41.232421875 c 4,2,3
 220.619140625 102.389648438 220.619140625 102.389648438 220.25 138.911132812 c 4,4,5
 220.619140625 207.110351562 220.619140625 207.110351562 249.42578125 212.846679688 c 4,6,7
 276.059570312 218.66015625 276.059570312 218.66015625 327.892578125 177.12890625 c 4,8,9
 370 143.969726562 370 143.969726562 378.16015625 143.779296875 c 4,10,11
 386.939453125 143.969726562 386.939453125 143.969726562 386.58203125 273.435546875 c 4,12,13
 386.939453125 403.459960938 386.939453125 403.459960938 394.966796875 419.74609375 c 4,14,15
 403.109375 436.5703125 403.109375 436.5703125 406.84765625 464.092773438 c 4,16,17
 410.040039062 492.009765625 410.040039062 492.009765625 439.614257812 518.477539062 c 4,18,19
 494.739257812 569.009765625 494.739257812 569.009765625 561.223632812 587.90234375 c 4,20,21
 640.26953125 610.58984375 640.26953125 610.58984375 669.842773438 670.861328125 c 4,22,23
 688.009765625 707.610351562 688.009765625 707.610351562 679.247070312 762.806640625 c 4,24,25
 670.299804688 818.490234375 670.299804688 818.490234375 645.930664062 824.522460938 c 4,26,27
 631.029296875 828.5 631.029296875 828.5 612.450195312 843.716796875 c 4,28,29
 594.069335938 859.299804688 594.069335938 859.299804688 487.7578125 857.176757812 c 4,30,31
 381.549804688 855.450195312 381.549804688 855.450195312 367.03125 841.85546875 c 4,32,33
 353.059570312 828.5 353.059570312 828.5 335.75 824.241210938 c 4,34,35
 319.1796875 820.030273438 319.1796875 820.030273438 318.8125 784.180664062 c 4,36,37
 319.1796875 726.08984375 319.1796875 726.08984375 262.096679688 730.265625 c 4,38,39
 226.009765625 733.01953125 226.009765625 733.01953125 216.302734375 742.59765625 c 4,40,41
 190.58984375 768.440429688 190.58984375 768.440429688 204.497070312 825.19921875 c 4,42,43
 221.389648438 893.1796875 221.389648438 893.1796875 323.249023438 948.444335938 c 4,44,45
 338.822265625 956.885742188 338.822265625 956.885742188 477.793945312 956.885742188 c 6,46,-1
 612.506835938 956.885742188 l 5,47,-1
 673.998046875 926.826171875 l 6,48,49
 735.0546875 897.365234375 735.0546875 897.365234375 756.599609375 863.831054688 c 6,50,-1
 777.748046875 830.9140625 l 5,51,-1
 777.748046875 728.686523438 l 5,52,-1
 777.748046875 626.458007812 l 5,53,-1
 759.043945312 596.098632812 l 6,54,55
 740.369140625 565.9296875 740.369140625 565.9296875 706.669921875 546.319335938 c 4,56,57
 673.379882812 526.66015625 673.379882812 526.66015625 643.825195312 507.819335938 c 4,58,59
 614.859375 488.9296875 614.859375 488.9296875 606.8671875 488.681640625 c 4,60,61
 563.26953125 488.16015625 563.26953125 488.16015625 526.088867188 446.8359375 c 4,62,63
 514.759765625 434.259765625 514.759765625 434.259765625 499.901367188 393.333984375 c 4,64,65
 485.5 352.639648438 485.5 352.639648438 485.14453125 214.143554688 c 4,66,67
 485.5 75.4404296875 485.5 75.4404296875 494.07421875 54.259765625 c 4,68,69
 508.599609375 20 508.599609375 20 522.083984375 45.1982421875 c 4,70,71
 528.619140625 57.7294921875 528.619140625 57.7294921875 551.560546875 70.14453125 c 4,72,73
 599.459960938 96.2294921875 599.459960938 96.2294921875 642.772460938 132.80078125 c 4,74,75
 670.299804688 155.51953125 670.299804688 155.51953125 693.754882812 162.033203125 c 132,-1,76
 717.26953125 168.610351562 717.26953125 168.610351562 728.439453125 180.700195312 c 4,77,78
 751.149414062 205.5703125 751.149414062 205.5703125 792.693359375 184.046875 c 4,79,80
 853.559570312 152.440429688 853.559570312 152.440429688 797.524414062 98.4931640625 c 4,81,82
 775.790039062 77.75 775.790039062 77.75 673.321289062 20.572265625 c 4,83,84
 634.879882812 -0.7900390625 634.879882812 -0.7900390625 599.479492188 -33.32421875 c 4,85,86
 564.040039062 -65.4697265625 564.040039062 -65.4697265625 558.422851562 -65.658203125 c 4,87,88
 552.489257812 -65.4697265625 552.489257812 -65.4697265625 524.227539062 -91.8447265625 c 4,89,90
 495.509765625 -117.830078125 495.509765625 -117.830078125 442.752929688 -119.85546875 c 4,91,92
 390.01953125 -121.6796875 390.01953125 -121.6796875 371.186523438 -110.080078125 c 4,0,1
EndSplineSet
Validated: 524321
LCarets2: 1 0
Ligature2: "'clig' Kontextuelle Ligaturen in Lateinisch Nachschlagetabelle 0 Subtabelle" k i
EndChar

StartChar: kiku
Encoding: 1114119 -1 24
Width: 1024
GlyphClass: 1
Flags: W
LayerCount: 2
Fore
SplineSet
539.764648438 -38.611328125 m 0,0,1
 530.234375 -34.951171875 530.234375 -34.951171875 504.498046875 -11.373046875 c 0,2,3
 478.64453125 12.0185546875 478.64453125 12.0185546875 472.765625 12.388671875 c 0,4,5
 467.09375 12.0185546875 467.09375 12.0185546875 426.314453125 49.34765625 c 0,6,7
 385.473632812 85.9384765625 385.473632812 85.9384765625 379.334960938 86.3056640625 c 0,8,9
 373.154296875 85.9384765625 373.154296875 85.9384765625 333.41015625 123.264648438 c 0,10,11
 293.84375 159.858398438 293.84375 159.858398438 287.390625 160.22265625 c 0,12,13
 280.75390625 159.858398438 280.75390625 159.858398438 236.408203125 202.069335938 c 0,14,15
 191.43359375 243.7890625 191.43359375 243.7890625 174.465820312 254.78125 c 0,16,17
 156.784179688 266.119140625 156.784179688 266.119140625 123.578125 296.100585938 c 0,18,19
 89.7939453125 326.178710938 89.7939453125 326.178710938 74.6435546875 326.537109375 c 0,20,21
 54.3740234375 326.178710938 54.3740234375 326.178710938 22.9453125 360.208984375 c 0,22,23
 -8.765625 393.938476562 -8.765625 393.938476562 -8.46484375 415.624023438 c 0,24,25
 -8.765625 437.05859375 -8.765625 437.05859375 42.3349609375 497.908203125 c 0,26,27
 92.8740234375 558.71875 92.8740234375 558.71875 118.877929688 568.006835938 c 0,28,29
 139.84375 575.659179688 139.84375 575.659179688 143.692382812 591.205078125 c 0,30,31
 147.543945312 606.458984375 147.543945312 606.458984375 198.923828125 660.215820312 c 0,32,33
 249.954101562 713.48828125 249.954101562 713.48828125 250.262695312 720.841796875 c 0,34,35
 249.954101562 728.119140625 249.954101562 728.119140625 304.159179688 785.396484375 c 0,36,37
 357.75390625 842.848632812 357.75390625 842.848632812 376.53515625 869.071289062 c 0,38,39
 394.713867188 895.208984375 394.713867188 895.208984375 412.403320312 901.16015625 c 0,40,41
 449.383789062 913.688476562 449.383789062 913.688476562 511.961914062 861.927734375 c 0,42,43
 542.553710938 836.688476562 542.553710938 836.688476562 571.252929688 822.07421875 c 0,44,45
 599.534179688 807.428710938 599.534179688 807.428710938 603.662109375 792.578125 c 0,46,47
 607.234375 777.3984375 607.234375 777.3984375 622.25390625 773.874023438 c 128,-1,48
 637.263671875 770.46875 637.263671875 770.46875 649.606445312 748.889648438 c 128,-1,49
 661.904296875 727.348632812 661.904296875 727.348632812 687.994140625 720.672851562 c 0,50,51
 713.494140625 713.48828125 713.494140625 713.48828125 758.940429688 671.043945312 c 0,52,53
 804.354492188 628.018554688 804.354492188 628.018554688 810.637695312 628.388671875 c 0,54,55
 817.444335938 628.018554688 817.444335938 628.018554688 843.290039062 604.626953125 c 0,56,57
 869.034179688 581.048828125 869.034179688 581.048828125 912.452148438 554.208984375 c 0,58,59
 955.274414062 527.918945312 955.274414062 527.918945312 983.286132812 503.978515625 c 0,60,61
 1013.02441406 478.638671875 1013.02441406 478.638671875 1021.78613281 471.23046875 c 0,62,63
 1030.734375 464.008789062 1030.734375 464.008789062 1032.140625 436.53515625 c 0,64,65
 1033.81445312 409.338867188 1033.81445312 409.338867188 1026.91699219 391.280273438 c 0,66,67
 1017.64453125 368.528320312 1017.64453125 368.528320312 945.104492188 334.1875 c 0,68,69
 922.1640625 323.098632812 922.1640625 323.098632812 918.448242188 308.151367188 c 0,70,71
 914.463867188 293.068359375 914.463867188 293.068359375 814.584960938 191.110351562 c 0,72,73
 688.083984375 62.068359375 688.083984375 62.068359375 654.775390625 -3.7958984375 c 0,74,75
 638.803710938 -35.7216796875 638.803710938 -35.7216796875 628.87109375 -39.212890625 c 0,76,77
 619.553710938 -42.6513671875 619.553710938 -42.6513671875 584.5859375 -42.47265625 c 0,78,79
 549.484375 -41.880859375 549.484375 -41.880859375 539.764648438 -38.611328125 c 0,0,1
593.435546875 105.424804688 m 0,80,81
 622.633789062 136.758789062 622.633789062 136.758789062 639.229492188 162.403320312 c 0,82,83
 655.744140625 187.579101562 655.744140625 187.579101562 776.291015625 307.700195312 c 128,-1,84
 896.75390625 427.818359375 896.75390625 427.818359375 897.0546875 431.284179688 c 0,85,86
 896.75390625 449.37890625 896.75390625 449.37890625 847.764648438 474.633789062 c 0,87,88
 832.07421875 482.48828125 832.07421875 482.48828125 804.659179688 505.51953125 c 0,89,90
 776.633789062 528.688476562 776.633789062 528.688476562 750.932617188 541.520507812 c 0,91,92
 687.314453125 573.348632812 687.314453125 573.348632812 679.12109375 606.018554688 c 0,93,94
 675.763671875 620.318359375 675.763671875 620.318359375 647.200195312 631.284179688 c 0,95,96
 618.784179688 641.87890625 618.784179688 641.87890625 570.23828125 687.60546875 c 0,97,98
 521.763671875 732.73828125 521.763671875 732.73828125 515.006835938 733.098632812 c 0,99,100
 508.801757812 732.74609375 508.801757812 732.74609375 477.690429688 761.860351562 c 2,101,-1
 446.955078125 790.623046875 l 1,102,-1
 422.008789062 766.485351562 l 2,103,104
 396.25390625 741.978515625 396.25390625 741.978515625 387.513671875 723.869140625 c 0,105,106
 377.774414062 705.018554688 377.774414062 705.018554688 355.686523438 680.311523438 c 0,107,108
 333.114257812 654.96875 333.114257812 654.96875 322.770507812 635.381835938 c 128,-1,109
 312.32421875 615.69921875 312.32421875 615.69921875 294.083007812 609.233398438 c 0,110,111
 276.133789062 602.608398438 276.133789062 602.608398438 268.103515625 583.72265625 c 128,-1,112
 259.963867188 564.87890625 259.963867188 564.87890625 193.602539062 498.90234375 c 0,113,114
 126.75390625 433.208984375 126.75390625 433.208984375 127.0546875 424.02734375 c 0,115,116
 126.75390625 414.728515625 126.75390625 414.728515625 159.388671875 397.577148438 c 0,117,118
 191.43359375 380.079101562 191.43359375 380.079101562 237.930664062 335.165039062 c 0,119,120
 283.833984375 289.98828125 283.833984375 289.98828125 309.553710938 272.809570312 c 0,121,122
 395.484375 215.298828125 395.484375 215.298828125 401.1796875 197.143554688 c 0,123,124
 404.723632812 185.268554688 404.723632812 185.268554688 418.436523438 181.427734375 c 0,125,126
 431.673828125 177.568359375 431.673828125 177.568359375 453.53515625 157.159179688 c 0,127,128
 474.793945312 136.758789062 474.793945312 136.758789062 493.576171875 127.55078125 c 0,129,130
 511.75390625 118.278320312 511.75390625 118.278320312 533.279296875 96.0634765625 c 0,131,132
 554.874023438 73.619140625 554.874023438 73.619140625 559.221679688 73.9736328125 c 0,133,134
 564.114257812 73.619140625 564.114257812 73.619140625 593.435546875 105.424804688 c 0,80,81
EndSplineSet
Validated: 524321
LCarets2: 3 0 0 0
Ligature2: "'clig' Kontextuelle Ligaturen in Lateinisch Nachschlagetabelle 0 Subtabelle" k i k u
EndChar

StartChar: ku
Encoding: 1114120 -1 25
Width: 1024
GlyphClass: 1
Flags: W
LayerCount: 2
Fore
SplineSet
561.05859375 71.525390625 m 0,0,1
 534.422851562 103.616210938 534.422851562 103.616210938 556.942382812 147.153320312 c 0,2,3
 583.07421875 197.703125 583.07421875 197.703125 646.5 220.036132812 c 0,4,5
 727.08203125 248.390625 727.08203125 248.390625 757.8828125 281.809570312 c 0,6,7
 813.061523438 341.690429688 813.061523438 341.690429688 803.7890625 372.419921875 c 0,8,9
 791.1484375 414.40625 791.1484375 414.40625 749.422851562 423.2890625 c 0,10,11
 730.237304688 427.358398438 730.237304688 427.358398438 665.016601562 460.567382812 c 0,12,13
 585.497070312 501.049804688 585.497070312 501.049804688 585.497070312 545.594726562 c 0,14,15
 585.497070312 566.1328125 585.497070312 566.1328125 594.577148438 591.801757812 c 0,16,17
 629.328125 690.303710938 629.328125 690.303710938 686.428710938 721.26953125 c 0,18,19
 704.124023438 730.849609375 704.124023438 730.849609375 732.579101562 754.95703125 c 0,20,21
 787.303710938 801.342773438 787.303710938 801.342773438 836.123046875 801.596679688 c 0,22,23
 875.038085938 801.794921875 875.038085938 801.794921875 892.423828125 786.740234375 c 128,-1,24
 909.809570312 771.6875 909.809570312 771.6875 898.34765625 747.719726562 c 0,25,26
 889.163085938 728.471679688 889.163085938 728.471679688 791.87109375 663.895507812 c 0,27,28
 698.532226562 601.935546875 698.532226562 601.935546875 703.685546875 566.103515625 c 0,29,30
 709.5078125 525.5078125 709.5078125 525.5078125 767.225585938 524.520507812 c 0,31,32
 779.52734375 524.315429688 779.52734375 524.315429688 828.227539062 498.221679688 c 0,33,34
 902.771484375 458.2890625 902.771484375 458.2890625 902.727539062 364.374023438 c 0,35,36
 902.727539062 305.916992188 902.727539062 305.916992188 885.5078125 270.79296875 c 0,37,38
 837.576171875 173.026367188 837.576171875 173.026367188 690.188476562 121.624023438 c 0,39,40
 662.484375 111.96875 662.484375 111.96875 632.55078125 87.2412109375 c 0,41,42
 582.408203125 45.828125 582.408203125 45.828125 561.05859375 71.525390625 c 0,0,1
261.010742188 82.166015625 m 0,43,44
 225.895507812 99.1416015625 225.895507812 99.1416015625 237.643554688 137.528320312 c 0,45,46
 246.102539062 165.3203125 246.102539062 165.3203125 287.291992188 189.450195312 c 0,47,48
 326.788085938 212.596679688 326.788085938 212.596679688 326.788085938 269.439453125 c 0,49,50
 326.788085938 303.28515625 326.788085938 303.28515625 298.4765625 333.5625 c 128,-1,51
 270.16015625 363.825195312 270.16015625 363.825195312 238.01953125 373.190429688 c 0,52,53
 165.4453125 394.274414062 165.4453125 394.274414062 148.612304688 439.118164062 c 0,54,55
 140.828125 459.806640625 140.828125 459.806640625 131.44921875 482.467773438 c 0,56,57
 105.400390625 545.296875 105.400390625 545.296875 144.909179688 624.755859375 c 0,58,59
 189.188476562 713.801757812 189.188476562 713.801757812 254.694335938 747.211914062 c 0,60,61
 324.309570312 782.755859375 324.309570312 782.755859375 358.614257812 740.387695312 c 0,62,63
 375.338867188 719.732421875 375.338867188 719.732421875 368.051757812 692.970703125 c 128,-1,64
 360.764648438 666.208007812 360.764648438 666.208007812 338.405273438 666.208007812 c 0,65,66
 318.8359375 666.208007812 318.8359375 666.208007812 273.53125 614.764648438 c 128,-1,67
 228.225585938 563.321289062 228.225585938 563.321289062 228.225585938 541.1015625 c 0,68,69
 228.225585938 494.036132812 228.225585938 494.036132812 291.916015625 461.864257812 c 0,70,71
 387.87890625 413.448242188 387.87890625 413.448242188 429.090820312 324.93359375 c 0,72,73
 458.096679688 262.591796875 458.096679688 262.591796875 434.580078125 206.33203125 c 0,74,75
 425.350585938 184.212890625 425.350585938 184.212890625 425.350585938 170.087890625 c 0,76,77
 425.350585938 139.786132812 425.350585938 139.786132812 388.090820312 120.891601562 c 0,78,79
 358.5234375 105.919921875 358.5234375 105.919921875 335.642578125 90.380859375 c 0,80,81
 297.510742188 64.51171875 297.510742188 64.51171875 261.010742188 82.166015625 c 0,43,44
EndSplineSet
Validated: 524321
LCarets2: 1 0
Ligature2: "'clig' Kontextuelle Ligaturen in Lateinisch Nachschlagetabelle 0 Subtabelle" k u
EndChar

StartChar: la
Encoding: 1114121 -1 26
Width: 1024
GlyphClass: 1
Flags: W
LayerCount: 2
Fore
SplineSet
346.771484375 -43.5546875 m 0,0,1
 304.865234375 -22.431640625 304.865234375 -22.431640625 344.91015625 22.353515625 c 0,2,3
 362.208984375 41.7333984375 362.208984375 41.7333984375 402.227539062 47.111328125 c 0,4,5
 564.528320312 68.9375 564.528320312 68.9375 577.545898438 156.294921875 c 0,6,7
 581.015625 179.626953125 581.015625 179.626953125 590.178710938 208.067382812 c 0,8,9
 600.248046875 239.4453125 600.248046875 239.4453125 600.211914062 415.626953125 c 128,-1,10
 600.17578125 591.809570312 600.17578125 591.809570312 590.083984375 615.926757812 c 0,11,12
 580.854492188 638.044921875 580.854492188 638.044921875 580.854492188 653.260742188 c 0,13,14
 580.854492188 724.6796875 580.854492188 724.6796875 527.0703125 781.958007812 c 0,15,16
 494.108398438 817.07421875 494.108398438 817.07421875 452.890625 817.07421875 c 0,17,18
 435.434570312 817.07421875 435.434570312 817.07421875 402.922851562 833.278320312 c 0,19,20
 332.388671875 868.420898438 332.388671875 868.420898438 385.590820312 913.173828125 c 0,21,22
 404.446289062 929.043945312 404.446289062 929.043945312 426.421875 925.186523438 c 0,23,24
 448.709960938 921.275390625 448.709960938 921.275390625 485.375 916.764648438 c 0,25,26
 583.8671875 904.602539062 583.8671875 904.602539062 630.595703125 840.102539062 c 0,27,28
 678.686523438 773.73046875 678.686523438 773.73046875 679.623046875 706.1796875 c 0,29,30
 679.862304688 690.786132812 679.862304688 690.786132812 688.646484375 675.40625 c 0,31,32
 698.657226562 657.895507812 698.657226562 657.895507812 698.657226562 427.134765625 c 128,-1,33
 698.657226562 196.374023438 698.657226562 196.374023438 688.646484375 172.40625 c 0,34,35
 679.421875 150.299804688 679.421875 150.299804688 679.28515625 124.86328125 c 0,36,37
 678.826171875 42.896484375 678.826171875 42.896484375 595.798828125 -8.5888671875 c 0,38,39
 526.736328125 -51.427734375 526.736328125 -51.427734375 423.771484375 -51.337890625 c 0,40,41
 362.274414062 -51.337890625 362.274414062 -51.337890625 346.771484375 -43.5546875 c 0,0,1
EndSplineSet
Validated: 524321
LCarets2: 1 0
Ligature2: "'clig' Kontextuelle Ligaturen in Lateinisch Nachschlagetabelle 0 Subtabelle" l a
EndChar

StartChar: li
Encoding: 1114122 -1 27
Width: 1024
GlyphClass: 1
Flags: W
LayerCount: 2
Fore
SplineSet
362.018554688 167.65625 m 132,-1,1
 335.874023438 190.358398438 335.874023438 190.358398438 300.2265625 224.635742188 c 132,-1,2
 264.587890625 258.90625 264.587890625 258.90625 204.841796875 299.079101562 c 132,-1,3
 145.0625 339.2734375 145.0625 339.2734375 136.99609375 354.516601562 c 132,-1,4
 128.9375 369.745117188 128.9375 369.745117188 131.206054688 406.100585938 c 132,-1,5
 133.462890625 442.450195312 133.462890625 442.450195312 152.693359375 459.62109375 c 132,-1,6
 171.8515625 476.767578125 171.8515625 476.767578125 194.408203125 483.006835938 c 132,-1,7
 216.853515625 489.209960938 216.853515625 489.209960938 249.5078125 520.059570312 c 132,-1,8
 282.061523438 550.873046875 282.061523438 550.873046875 297.8203125 554.85546875 c 132,-1,9
 313.53125 558.797851562 313.53125 558.797851562 317.27734375 575.834960938 c 132,-1,10
 321.004882812 592.865234375 321.004882812 592.865234375 339.62890625 610.669921875 c 132,-1,11
 358.1640625 628.387695312 358.1640625 628.387695312 371.1171875 650.034179688 c 4,12,13
 415.216796875 723.969726562 415.216796875 723.969726562 467.517578125 723.969726562 c 4,14,15
 505.208984375 723.969726562 505.208984375 723.969726562 505.208984375 584.915039062 c 6,16,-1
 505.208984375 465.2421875 l 5,17,-1
 663.833984375 465.185546875 l 6,18,19
 822.36328125 465.185546875 822.36328125 465.185546875 845.95703125 458.625 c 4,20,21
 893.291992188 445.478515625 893.291992188 445.478515625 893.291992188 407.134765625 c 4,22,23
 893.291992188 366.661132812 893.291992188 366.661132812 689.569335938 366.661132812 c 6,24,-1
 505.208984375 366.6796875 l 5,25,-1
 505.208984375 351.076171875 l 6,26,27
 505.208984375 335.484375 505.208984375 335.484375 495.978515625 313.366210938 c 132,-1,28
 486.729492188 291.203125 486.729492188 291.203125 486.729492188 267.158203125 c 132,-1,29
 486.729492188 243.088867188 486.729492188 243.088867188 477.5 220.969726562 c 132,-1,30
 468.250976562 198.806640625 468.250976562 198.806640625 468.250976562 181.567382812 c 4,31,32
 468.250976562 144.91015625 468.250976562 144.91015625 418.546875 144.91015625 c 4,33,0
 388.213867188 144.91015625 388.213867188 144.91015625 362.018554688 167.65625 c 132,-1,1
400.6875 354.723632812 m 5,34,35
 400.6875 354.723632812 400.6875 354.723632812 344.760742188 366.6796875 c 6,36,37
 258.90625 366.6796875 258.90625 366.6796875 336.301757812 325.416015625 c 6,38,-1
 385.103515625 299.3984375 l 5,39,-1
 389.690429688 321.092773438 l 6,40,41
 394.321289062 342.842773438 394.321289062 342.842773438 400.6875 354.723632812 c 5,34,35
406.666015625 489.88671875 m 6,42,43
 406.666015625 514.513671875 406.666015625 514.513671875 401.006835938 514.513671875 c 132,-1,44
 395.357421875 514.513671875 395.357421875 514.513671875 375.854492188 489.88671875 c 6,45,-1
 356.340820312 465.2421875 l 5,46,-1
 381.494140625 465.2421875 l 5,47,-1
 406.666015625 465.2421875 l 5,48,-1
 406.666015625 489.88671875 l 6,42,43
EndSplineSet
Validated: 524321
LCarets2: 1 0
Ligature2: "'clig' Kontextuelle Ligaturen in Lateinisch Nachschlagetabelle 0 Subtabelle" l i
EndChar

StartChar: lika
Encoding: 1114123 -1 28
Width: 1024
GlyphClass: 1
Flags: W
LayerCount: 2
Fore
SplineSet
614.087890625 196.280273438 m 0,0,1
 537.819335938 223.53515625 537.819335938 223.53515625 518.740234375 301.741210938 c 0,2,3
 514.2578125 320.114257812 514.2578125 320.114257812 487.515625 375.20703125 c 128,-1,4
 460.802734375 430.170898438 460.802734375 430.170898438 460.802734375 441.078125 c 0,5,6
 460.802734375 491.548828125 460.802734375 491.548828125 372.034179688 537.046875 c 0,7,8
 353.002929688 546.784179688 353.002929688 546.784179688 335.583984375 561.334960938 c 0,9,10
 305.538085938 586.404296875 305.538085938 586.404296875 244.221679688 557.38671875 c 0,11,12
 205.178710938 538.907226562 205.178710938 538.907226562 197.46875 538.907226562 c 0,13,14
 189.545898438 511.245117188 189.545898438 511.245117188 171.168945312 459.125 c 128,-1,15
 152.802734375 407.098632812 152.802734375 407.098632812 152.802734375 383.459960938 c 0,16,17
 152.802734375 337.524414062 152.802734375 337.524414062 119.549804688 295.763671875 c 128,-1,18
 86.296875 254.001953125 86.296875 254.001953125 60.650390625 267.734375 c 0,19,20
 10.6640625 294.447265625 10.6640625 294.447265625 45.009765625 376.6171875 c 0,21,22
 54.2470703125 398.752929688 54.2470703125 398.752929688 54.3154296875 421.076171875 c 128,-1,23
 54.3837890625 443.455078125 54.3837890625 443.455078125 75.087890625 508.096679688 c 128,-1,24
 95.7919921875 572.802734375 95.7919921875 572.802734375 129.736328125 609.741210938 c 128,-1,25
 163.673828125 646.692382812 163.673828125 646.692382812 209.612304688 661.212890625 c 128,-1,26
 255.56640625 675.715820312 255.56640625 675.715820312 310.44921875 673.526367188 c 0,27,28
 365.594726562 671.323242188 365.594726562 671.323242188 450.557617188 618.65234375 c 0,29,30
 475.93359375 602.930664062 475.93359375 602.930664062 481.462890625 583.66796875 c 128,-1,31
 486.958007812 564.41796875 486.958007812 564.41796875 503.983398438 557.349609375 c 128,-1,32
 521 550.293945312 521 550.293945312 540.190429688 508.698242188 c 128,-1,33
 559.365234375 467.06640625 559.365234375 467.06640625 559.365234375 459.764648438 c 0,34,35
 559.365234375 403.625 559.365234375 403.625 636.458984375 311.987304688 c 0,36,37
 662.44140625 281.12890625 662.44140625 281.12890625 707.537109375 310.087890625 c 0,38,39
 811.926757812 377.068359375 811.926757812 377.068359375 811.926757812 414.328125 c 0,40,41
 811.926757812 420.13671875 811.926757812 420.13671875 830.048828125 442.977539062 c 128,-1,42
 848.18359375 465.798828125 848.18359375 465.798828125 858.604492188 494.63671875 c 0,43,44
 897.690429688 602.671875 897.690429688 602.671875 917.313476562 613.181640625 c 0,45,46
 951.603515625 631.541992188 951.603515625 631.541992188 980.872070312 600.981445312 c 0,47,48
 1007.44726562 573.235351562 1007.44726562 573.235351562 975.68359375 495.783203125 c 0,49,50
 931.546875 388.182617188 931.546875 388.182617188 885.430664062 338.850585938 c 0,51,52
 844.930664062 295.509765625 844.930664062 295.509765625 831.139648438 272.66015625 c 128,-1,53
 817.336914062 249.771484375 817.336914062 249.771484375 770.983398438 218.763671875 c 128,-1,54
 724.627929688 187.775390625 724.627929688 187.775390625 680.504882812 188.045898438 c 128,-1,55
 636.36328125 188.3203125 636.36328125 188.3203125 614.087890625 196.280273438 c 0,0,1
EndSplineSet
Validated: 524321
LCarets2: 3 0 0 0
Ligature2: "'clig' Kontextuelle Ligaturen in Lateinisch Nachschlagetabelle 0 Subtabelle" l i k a
EndChar

StartChar: lili
Encoding: 1114124 -1 29
Width: 1024
GlyphClass: 1
Flags: W
LayerCount: 2
Fore
SplineSet
574.86328125 79.3896484375 m 0,0,1
 489.654296875 110.950195312 489.654296875 110.950195312 451.0546875 145.805664062 c 0,2,3
 419.481445312 174.328125 419.481445312 174.328125 395.165039062 243.051757812 c 0,4,5
 377.739257812 292.228515625 377.739257812 292.228515625 377.739257812 346.012695312 c 128,-1,6
 377.739257812 399.715820312 377.739257812 399.715820312 386.216796875 419.986328125 c 0,7,8
 418.446289062 496.818359375 418.446289062 496.818359375 433.213867188 539.114257812 c 0,9,10
 473.23046875 653.791015625 473.23046875 653.791015625 574.111328125 721.256835938 c 2,11,-1
 620.6953125 752.424804688 l 1,12,-1
 673.970703125 750.319335938 l 2,13,14
 727.225585938 748.22265625 727.225585938 748.22265625 755.6328125 722.02734375 c 128,-1,15
 784.015625 695.864257812 784.015625 695.864257812 794.94140625 695.727539062 c 0,16,17
 831.575195312 695.259765625 831.575195312 695.259765625 882.694335938 649.069335938 c 0,18,19
 908.6015625 625.651367188 908.6015625 625.651367188 932.680664062 577.74609375 c 2,20,-1
 956.780273438 529.809570312 l 1,21,-1
 956.780273438 439.931640625 l 2,22,23
 956.780273438 350.03515625 956.780273438 350.03515625 935.29296875 285.142578125 c 128,-1,24
 913.774414062 220.190429688 913.774414062 220.190429688 872.73046875 159.509765625 c 2,25,-1
 831.655273438 98.80859375 l 1,26,-1
 779.939453125 80.0849609375 l 2,27,28
 675.241210938 42.2177734375 675.241210938 42.2177734375 574.86328125 79.3896484375 c 0,0,1
736.77734375 179.041992188 m 2,29,-1
 781.217773438 198.16015625 l 1,30,-1
 807.216796875 254.51953125 l 2,31,32
 853.530273438 354.904296875 853.530273438 354.904296875 856.638671875 418.106445312 c 0,33,34
 862.862304688 544.821289062 862.862304688 544.821289062 781.932617188 582.501953125 c 0,35,36
 750.418945312 597.168945312 750.418945312 597.168945312 702.075195312 597.240234375 c 128,-1,37
 653.615234375 597.326171875 653.615234375 597.326171875 632.462890625 607.391601562 c 128,-1,38
 611.198242188 617.47265625 611.198242188 617.47265625 592.458984375 599.684570312 c 0,39,40
 555.354492188 564.422851562 555.354492188 564.422851562 530.235351562 499.674804688 c 0,41,42
 511.6015625 451.646484375 511.6015625 451.646484375 496.05859375 412.504882812 c 0,43,44
 467.879882812 341.399414062 467.879882812 341.399414062 493.577148438 277.115234375 c 0,45,46
 517.896484375 216.283203125 517.896484375 216.283203125 609.716796875 184.098632812 c 0,47,48
 676.477539062 160.6953125 676.477539062 160.6953125 684.422851562 160.318359375 c 128,-1,49
 692.284179688 159.91015625 692.284179688 159.91015625 736.77734375 179.041992188 c 2,29,-1
96.5087890625 323.98046875 m 4,50,51
 89.3828125 326.892578125 89.3828125 326.892578125 75.6796875 368.721679688 c 132,-1,52
 61.9765625 410.549804688 61.9765625 410.549804688 70.4716796875 428.239257812 c 4,53,54
 91.7900390625 472.552734375 91.7900390625 472.552734375 148.950195312 473.478515625 c 132,-1,55
 206.110351562 474.404296875 206.110351562 474.404296875 228.17578125 430.795898438 c 4,56,57
 234.473632812 418.353515625 234.473632812 418.353515625 235.62890625 389.958007812 c 132,-1,58
 236.784179688 361.5625 236.784179688 361.5625 231.352539062 353.025390625 c 4,59,60
 222.313476562 338.83984375 222.313476562 338.83984375 169.208984375 327.399414062 c 132,-1,61
 116.104492188 315.958984375 116.104492188 315.958984375 96.5087890625 323.98046875 c 4,50,51
EndSplineSet
Validated: 524321
LCarets2: 3 0 0 0
Ligature2: "'clig' Kontextuelle Ligaturen in Lateinisch Nachschlagetabelle 0 Subtabelle" l i l i
EndChar

StartChar: liti
Encoding: 1114125 -1 30
Width: 1024
GlyphClass: 1
Flags: W
LayerCount: 2
Fore
SplineSet
152.221679688 -4.1279296875 m 0,0,1
 135.368164062 5.0146484375 135.368164062 5.0146484375 131.598632812 19.953125 c 0,2,3
 121.153320312 61.6015625 121.153320312 61.6015625 168.576171875 134.081054688 c 0,4,5
 182.84765625 155.884765625 182.84765625 155.884765625 199.80078125 186.435546875 c 0,6,7
 216.93359375 217.247070312 216.93359375 217.247070312 283.850585938 285.599609375 c 128,-1,8
 350.79296875 353.909179688 350.79296875 353.909179688 350.79296875 360.833007812 c 128,-1,9
 350.79296875 367.71484375 350.79296875 367.71484375 369.912109375 389.500976562 c 2,10,-1
 389.030273438 411.26953125 l 1,11,-1
 256.874023438 411.26953125 l 2,12,13
 92.9443359375 411.26953125 92.9443359375 411.26953125 79.337890625 436.685546875 c 0,14,15
 65.1005859375 463.291015625 65.1005859375 463.291015625 106.37109375 493.890625 c 0,16,17
 123.735351562 506.750976562 123.735351562 506.750976562 246.8359375 508.666992188 c 2,18,-1
 369.912109375 510.565429688 l 1,19,-1
 351.11328125 531.977539062 l 2,20,21
 332.314453125 553.374023438 332.314453125 553.374023438 332.314453125 559.310546875 c 128,-1,22
 332.314453125 565.258789062 332.314453125 565.258789062 311.541015625 588.354492188 c 0,23,24
 267.861328125 636.93359375 267.861328125 636.93359375 210.7421875 734.045898438 c 0,25,26
 188.581054688 771.778320312 188.581054688 771.778320312 212.640625 795.837890625 c 0,27,28
 234.807617188 818.036132812 234.807617188 818.036132812 286.33203125 793.092773438 c 0,29,30
 311.985351562 780.669921875 311.985351562 780.669921875 329.268554688 748.4453125 c 128,-1,31
 346.458984375 716.310546875 346.458984375 716.310546875 375.702148438 684.943359375 c 0,32,33
 404.852539062 653.745117188 404.852539062 653.745117188 418.58203125 626.422851562 c 0,34,35
 448.686523438 566.498046875 448.686523438 566.498046875 474.338867188 552.768554688 c 0,36,37
 486.502929688 546.278320312 486.502929688 546.278320312 520.884765625 578.786132812 c 128,-1,38
 555.28515625 611.33984375 555.28515625 611.33984375 569.96875 636.404296875 c 128,-1,39
 584.634765625 661.473632812 584.634765625 661.473632812 599.125976562 675.07421875 c 128,-1,40
 613.500976562 688.565429688 613.500976562 688.565429688 640.802734375 732.82421875 c 128,-1,41
 668.05078125 777.029296875 668.05078125 777.029296875 705.771484375 817.004882812 c 128,-1,42
 743.501953125 856.975585938 743.501953125 856.975585938 780.139648438 859.640625 c 0,43,44
 837.438476562 863.762695312 837.438476562 863.762695312 837.438476562 811.233398438 c 0,45,46
 837.438476562 778.797851562 837.438476562 778.797851562 797.397460938 747.524414062 c 0,47,48
 778.939453125 733.092773438 778.939453125 733.092773438 748.74609375 684.604492188 c 128,-1,49
 718.561523438 636.098632812 718.561523438 636.098632812 680.35546875 596.081054688 c 128,-1,50
 642.087890625 555.928710938 642.087890625 555.928710938 628.4140625 532.935546875 c 2,51,-1
 614.672851562 509.83203125 l 1,52,-1
 687.555664062 510.057617188 l 2,53,54
 760.422851562 510.270507812 760.422851562 510.270507812 775.834960938 519.081054688 c 0,55,56
 790.006835938 527.174804688 790.006835938 527.174804688 842.747070312 528.041015625 c 128,-1,57
 895.487304688 528.907226562 895.487304688 528.907226562 917.033203125 521.393554688 c 0,58,59
 948.314453125 510.501953125 948.314453125 510.501953125 948.314453125 466.763671875 c 0,60,61
 948.314453125 429.749023438 948.314453125 429.749023438 893.196289062 429.749023438 c 0,62,63
 857.432617188 429.749023438 857.432617188 429.749023438 835.314453125 420.518554688 c 128,-1,64
 813.1796875 411.26953125 813.1796875 411.26953125 695.112304688 411.26953125 c 2,65,-1
 577.037109375 411.26953125 l 1,66,-1
 604.05078125 381.229492188 l 2,67,68
 631.012695312 351.268554688 631.012695312 351.268554688 643.397460938 332.502929688 c 0,69,70
 685.453125 268.711914062 685.453125 268.711914062 758.145507812 193.015625 c 0,71,72
 837.438476562 110.412109375 837.438476562 110.412109375 837.438476562 79.4892578125 c 0,73,74
 837.438476562 38.8662109375 837.438476562 38.8662109375 780.590820312 42.962890625 c 2,75,-1
 744.421875 45.5947265625 l 1,76,-1
 679.528320312 109.849609375 l 2,77,78
 614.565429688 174.208984375 614.565429688 174.208984375 580.477539062 225.575195312 c 128,-1,79
 546.388671875 276.913085938 546.388671875 276.913085938 508.741210938 317.200195312 c 2,80,-1
 471.180664062 357.3359375 l 1,81,-1
 462.833984375 336.563476562 l 2,82,83
 454.438476562 315.760742188 454.438476562 315.760742188 381.848632812 241.874023438 c 128,-1,84
 309.26953125 168.044921875 309.26953125 168.044921875 295.412109375 140.228515625 c 0,85,86
 281.669921875 112.57421875 281.669921875 112.57421875 266.59375 92.4609375 c 128,-1,87
 251.578125 72.4296875 251.578125 72.4296875 242.305664062 41.2900390625 c 128,-1,88
 233.067382812 10.189453125 233.067382812 10.189453125 221.100585938 -1.7783203125 c 0,89,90
 195.34375 -27.5341796875 195.34375 -27.5341796875 152.221679688 -4.1279296875 c 0,0,1
EndSplineSet
Validated: 524321
LCarets2: 3 0 0 0
Ligature2: "'clig' Kontextuelle Ligaturen in Lateinisch Nachschlagetabelle 0 Subtabelle" l i t i
EndChar

StartChar: lu
Encoding: 1114126 -1 31
Width: 1024
GlyphClass: 1
Flags: W
LayerCount: 2
Fore
SplineSet
83.1533203125 6.6171875 m 4,0,1
 64.0498046875 15.8662109375 64.0498046875 15.8662109375 57.9150390625 44.9970703125 c 132,-1,2
 51.78125 74.12890625 51.78125 74.12890625 65.9521484375 88.2978515625 c 4,3,4
 75.6171875 97.962890625 75.6171875 97.962890625 486.369140625 97.94140625 c 4,5,6
 896.950195312 97.94140625 896.950195312 97.94140625 920.603515625 91.380859375 c 4,7,8
 967.938476562 78.2353515625 967.938476562 78.2353515625 967.938476562 39.890625 c 4,9,10
 967.938476562 7.6572265625 967.938476562 7.6572265625 922.466796875 3.5673828125 c 132,-1,11
 876.997070312 -0.5224609375 876.997070312 -0.5224609375 522.444335938 -0.169921875 c 4,12,13
 96.3251953125 0.2314453125 96.3251953125 0.2314453125 83.1533203125 6.6171875 c 4,0,1
EndSplineSet
Validated: 524321
LCarets2: 1 0
Ligature2: "'clig' Kontextuelle Ligaturen in Lateinisch Nachschlagetabelle 0 Subtabelle" l u
EndChar

StartChar: lupa
Encoding: 1114127 -1 32
Width: 1024
GlyphClass: 1
Flags: W
LayerCount: 2
Fore
SplineSet
823.56640625 -37.896484375 m 0,0,1
 802.866210938 -28.9052734375 802.866210938 -28.9052734375 472.442382812 -28.8154296875 c 128,-1,2
 142.022460938 -28.69140625 142.022460938 -28.69140625 127.350585938 -21.1083984375 c 128,-1,3
 112.645507812 -13.501953125 112.645507812 -13.501953125 98.08203125 29.62890625 c 2,4,-1
 83.494140625 72.7353515625 l 1,5,-1
 85.0537109375 447.508789062 l 1,6,-1
 86.615234375 822.282226562 l 1,7,-1
 101.145507812 834.05078125 l 2,8,9
 115.698242188 845.818359375 115.698242188 845.818359375 139.213867188 845.818359375 c 0,10,11
 173.276367188 845.818359375 173.276367188 845.818359375 177.685546875 806.478515625 c 128,-1,12
 182.092773438 767.138671875 182.092773438 767.138671875 182.092773438 463.1875 c 2,13,-1
 182.092773438 99.8994140625 l 1,14,-1
 197.20703125 84.78515625 l 1,15,-1
 212.321289062 69.6708984375 l 1,16,-1
 526.770507812 69.6708984375 l 1,17,-1
 841.217773438 69.6708984375 l 1,18,-1
 841.217773438 84.3154296875 l 2,19,20
 841.217773438 98.9033203125 841.217773438 98.9033203125 831.96875 121.06640625 c 128,-1,21
 822.739257812 143.1484375 822.739257812 143.1484375 822.739257812 425.983398438 c 128,-1,22
 822.739257812 708.793945312 822.739257812 708.793945312 813.490234375 730.919921875 c 128,-1,23
 804.258789062 753.02734375 804.258789062 753.02734375 804.333984375 850.235351562 c 128,-1,24
 804.4375 947.5703125 804.4375 947.5703125 808.20703125 961.5625 c 0,25,26
 813.748046875 982.259765625 813.748046875 982.259765625 845.831054688 990.731445312 c 128,-1,27
 877.9140625 999.203125 877.9140625 999.203125 893.139648438 983.990234375 c 0,28,29
 902.802734375 974.3046875 902.802734375 974.3046875 902.802734375 883.095703125 c 128,-1,30
 902.802734375 791.903320312 902.802734375 791.903320312 912.051757812 769.776367188 c 128,-1,31
 921.283203125 747.696289062 921.283203125 747.696289062 921.283203125 464.859375 c 128,-1,32
 921.283203125 182.049804688 921.283203125 182.049804688 930.532226562 159.924804688 c 0,33,34
 940.681640625 135.64453125 940.681640625 135.64453125 940.501953125 54.08984375 c 128,-1,35
 940.322265625 -27.4658203125 940.322265625 -27.4658203125 930.098632812 -37.6884765625 c 0,36,37
 920.694335938 -47.09375 920.694335938 -47.09375 882.895507812 -47.16796875 c 128,-1,38
 845.096679688 -47.2431640625 845.096679688 -47.2431640625 823.56640625 -37.896484375 c 0,0,1
EndSplineSet
Validated: 524321
LCarets2: 3 0 0 0
Ligature2: "'clig' Kontextuelle Ligaturen in Lateinisch Nachschlagetabelle 0 Subtabelle" l u p a
EndChar

StartChar: mi
Encoding: 1114128 -1 33
Width: 1024
GlyphClass: 1
Flags: W
LayerCount: 2
Fore
SplineSet
401.19921875 29.33984375 m 128,-1,1
 362.084960938 47.818359375 362.084960938 47.818359375 354.786132812 47.818359375 c 128,-1,2
 347.40234375 47.818359375 347.40234375 47.818359375 313.766601562 69.775390625 c 128,-1,3
 280.174804688 91.7041015625 280.174804688 91.7041015625 243.138671875 108.971679688 c 128,-1,4
 206.162109375 126.1953125 206.162109375 126.1953125 170.875976562 157.416015625 c 128,-1,5
 135.658203125 188.577148438 135.658203125 188.577148438 117.506835938 199.336914062 c 0,6,7
 41.705078125 244.091796875 41.705078125 244.091796875 125.08203125 324.217773438 c 0,8,9
 146.69921875 344.982421875 146.69921875 344.982421875 185.671875 349.46484375 c 128,-1,10
 224.631835938 353.938476562 224.631835938 353.938476562 241.993164062 361.026367188 c 128,-1,11
 259.311523438 368.131835938 259.311523438 368.131835938 357.493164062 368.131835938 c 2,12,-1
 455.66015625 368.131835938 l 1,13,-1
 455.66015625 556.213867188 l 2,14,15
 455.66015625 744.274414062 455.66015625 744.274414062 446.053710938 767.193359375 c 0,16,17
 423.953125 819.807617188 423.953125 819.807617188 461.7890625 839.362304688 c 0,18,19
 499.892578125 859.068359375 499.892578125 859.068359375 524.877929688 840.076171875 c 0,20,21
 554.204101562 817.81640625 554.204101562 817.81640625 554.204101562 577.776367188 c 2,22,-1
 554.204101562 368.131835938 l 1,23,-1
 712.828125 368.075195312 l 2,24,25
 905.432617188 368.009765625 905.432617188 368.009765625 930.368164062 343.073242188 c 0,26,27
 940.84375 332.59765625 940.84375 332.59765625 942.374023438 303.2734375 c 128,-1,28
 943.903320312 273.94921875 943.903320312 273.94921875 934.59765625 262.049804688 c 0,29,30
 907.396484375 227.319335938 907.396484375 227.319335938 814.79296875 191.987304688 c 0,31,32
 706.727539062 150.78515625 706.727539062 150.78515625 686.490234375 136.361328125 c 0,33,34
 668.174804688 123.2734375 668.174804688 123.2734375 636.994140625 107.580078125 c 128,-1,35
 605.765625 91.8466796875 605.765625 91.8466796875 598.060546875 82.5400390625 c 128,-1,36
 590.3046875 73.2119140625 590.3046875 73.2119140625 572.268554688 69.2490234375 c 128,-1,37
 554.204101562 65.283203125 554.204101562 65.283203125 554.204101562 47.7431640625 c 0,38,39
 554.204101562 10.822265625 554.204101562 10.822265625 487.54296875 10.822265625 c 0,40,0
 440.206054688 10.845703125 440.206054688 10.845703125 401.19921875 29.33984375 c 128,-1,1
455.66015625 199.318359375 m 1,41,-1
 455.66015625 270.75390625 l 1,42,-1
 370.953125 267.953125 l 2,43,44
 286.245117188 265.149414062 286.245117188 265.149414062 263.76171875 258.008789062 c 128,-1,45
 241.284179688 250.85546875 241.284179688 250.85546875 248.1015625 228.64453125 c 0,46,47
 257.865234375 196.76953125 257.865234375 196.76953125 323.204101562 180.745117188 c 0,48,49
 341.743164062 176.1875 341.743164062 176.1875 361.666015625 161.006835938 c 0,50,51
 404.24609375 128.618164062 404.24609375 128.618164062 438.704101562 128.126953125 c 0,52,-1
 455.66015625 199.318359375 l 1,41,-1
618.889648438 220.110351562 m 128,-1,54
 643.493164062 227.958007812 643.493164062 227.958007812 656.506835938 239.7734375 c 128,-1,55
 669.498046875 251.568359375 669.498046875 251.568359375 691.923828125 255.2265625 c 1,56,57
 681.041015625 265.185546875 681.041015625 265.185546875 634.287109375 269.569335938 c 2,58,-1
 554.204101562 269.569335938 l 1,59,-1
 554.204101562 225.711914062 l 1,60,-1
 554.204101562 181.873046875 l 1,61,-1
 574.223632812 197.0625 l 2,62,53
 594.204101562 212.235351562 594.204101562 212.235351562 618.889648438 220.110351562 c 128,-1,54
EndSplineSet
Validated: 524321
LCarets2: 1 0
Ligature2: "'clig' Kontextuelle Ligaturen in Lateinisch Nachschlagetabelle 0 Subtabelle" m i
EndChar

StartChar: muku
Encoding: 1114129 -1 34
Width: 1024
GlyphClass: 1
Flags: W
LayerCount: 2
Fore
SplineSet
358.838867188 201.163085938 m 4,0,1
 293.345703125 225.982421875 293.345703125 225.982421875 264.149414062 281.265625 c 4,2,3
 251.134765625 305.862304688 251.134765625 305.862304688 248.921875 373.661132812 c 132,-1,4
 246.69921875 441.444335938 246.69921875 441.444335938 238.263671875 463.576171875 c 132,-1,5
 229.803710938 485.750976562 229.803710938 485.750976562 241.440429688 504.858398438 c 4,6,7
 264.641601562 543.025390625 264.641601562 543.025390625 445.802734375 543.283203125 c 4,8,9
 601.663085938 543.49609375 601.663085938 543.49609375 617.041015625 552.287109375 c 4,10,11
 630.84375 560.182617188 630.84375 560.182617188 673.796875 561.092773438 c 132,-1,12
 716.75 562.001953125 716.75 562.001953125 742.184570312 554.938476562 c 4,13,14
 789.592773438 541.767578125 789.592773438 541.767578125 789.294921875 464.516601562 c 4,15,16
 789.071289062 404.416992188 789.071289062 404.416992188 780.290039062 389.057617188 c 132,-1,17
 771.470703125 373.642578125 771.470703125 373.642578125 771.266601562 354.974609375 c 4,18,19
 770.310546875 276.76953125 770.310546875 276.76953125 713.140625 262.372070312 c 4,20,21
 699.3125 258.900390625 699.3125 258.900390625 691.616210938 237.65234375 c 132,-1,22
 683.928710938 216.396484375 683.928710938 216.396484375 658.19140625 202.611328125 c 132,-1,23
 632.4609375 188.859375 632.4609375 188.859375 515.395507812 187.534179688 c 132,-1,24
 398.356445312 186.203125 398.356445312 186.203125 358.838867188 201.163085938 c 4,0,1
588.8046875 296.435546875 m 132,-1,26
 617.010742188 308.52734375 617.010742188 308.52734375 641.16015625 345.875976562 c 4,27,28
 705.052734375 444.725585938 705.052734375 444.725585938 688.758789062 461.075195312 c 4,29,30
 686.630859375 463.204101562 686.630859375 463.204101562 642.193359375 453.838867188 c 132,-1,31
 597.6875 444.495117188 597.6875 444.495117188 471.255859375 444.495117188 c 6,32,-1
 344.77734375 444.495117188 l 5,33,-1
 347.051757812 390.599609375 l 6,34,35
 350.055664062 319.70703125 350.055664062 319.70703125 372.546875 302.53515625 c 132,-1,36
 395.0390625 285.36328125 395.0390625 285.36328125 485.63671875 284.799804688 c 4,37,25
 560.583984375 284.340820312 560.583984375 284.340820312 588.8046875 296.435546875 c 132,-1,26
EndSplineSet
Validated: 524321
LCarets2: 3 0 0 0
Ligature2: "'clig' Kontextuelle Ligaturen in Lateinisch Nachschlagetabelle 0 Subtabelle" m u k u
EndChar

StartChar: muti
Encoding: 1114130 -1 35
Width: 1024
GlyphClass: 1
Flags: W
LayerCount: 2
Fore
SplineSet
400.203125 52.306640625 m 128,-1,1
 371.427734375 60.2197265625 371.427734375 60.2197265625 337.846679688 64.4130859375 c 128,-1,2
 304.212890625 68.615234375 304.212890625 68.615234375 268.009765625 114.493164062 c 128,-1,3
 231.838867188 160.321289062 231.838867188 160.321289062 222.553710938 183.447265625 c 128,-1,4
 213.340820312 206.513671875 213.340820312 206.513671875 202.3828125 222.642578125 c 0,5,6
 167.116210938 274.538085938 167.116210938 274.538085938 167.116210938 388.185546875 c 2,7,-1
 167.116210938 449.845703125 l 1,8,-1
 132.939453125 449.845703125 l 2,9,10
 81.3896484375 449.845703125 81.3896484375 449.845703125 36.2763671875 498.064453125 c 0,11,12
 -1.6669921875 538.618164062 -1.6669921875 538.618164062 1.7236328125 605.857421875 c 0,13,14
 4.0029296875 650.91015625 4.0029296875 650.91015625 20.8798828125 670.9765625 c 128,-1,15
 37.76171875 691.041015625 37.76171875 691.041015625 37.76171875 709.45703125 c 0,16,17
 37.76171875 765.604492188 37.76171875 765.604492188 100.586914062 798.451171875 c 0,18,19
 114.323242188 805.616210938 114.323242188 805.616210938 191.698242188 806.78125 c 128,-1,20
 269.072265625 807.947265625 269.072265625 807.947265625 313.27734375 801.646484375 c 0,21,22
 381.196289062 791.961914062 381.196289062 791.961914062 424.302734375 740.118164062 c 0,23,24
 431.991210938 730.852539062 431.991210938 730.852539062 431.991210938 668.26953125 c 128,-1,25
 431.991210938 605.629882812 431.991210938 605.629882812 416.876953125 563.973632812 c 128,-1,26
 401.788085938 522.326171875 401.788085938 522.326171875 391.123046875 510.528320312 c 0,27,28
 336.19140625 449.845703125 336.19140625 449.845703125 273.780273438 449.845703125 c 0,29,30
 264.833984375 449.845703125 264.833984375 449.845703125 267.370117188 392.866210938 c 0,31,32
 271.150390625 308.241210938 271.150390625 308.241210938 309.5546875 249.657226562 c 0,33,34
 325.63671875 225.143554688 325.63671875 225.143554688 340.366210938 197.84765625 c 0,35,36
 367.634765625 147.185546875 367.634765625 147.185546875 514.762695312 143.518554688 c 0,37,38
 606.748046875 141.203125 606.748046875 141.203125 644.13671875 154.779296875 c 128,-1,39
 681.50390625 168.364257812 681.50390625 168.364257812 703.033203125 188.560546875 c 128,-1,40
 724.563476562 208.760742188 724.563476562 208.760742188 741.533203125 212.942382812 c 128,-1,41
 758.489257812 217.114257812 758.489257812 217.114257812 758.489257812 217.98046875 c 128,-1,42
 758.489257812 218.846679688 758.489257812 218.846679688 767.719726562 271.21875 c 0,43,44
 789.215820312 393.1953125 789.215820312 393.1953125 767.13671875 458.00390625 c 0,45,46
 757.311523438 486.823242188 757.311523438 486.823242188 742.19140625 486.823242188 c 0,47,48
 708.84765625 486.823242188 708.84765625 486.823242188 660.810546875 539.365234375 c 2,49,-1
 629.116210938 574.049804688 l 1,50,-1
 629.116210938 640.108398438 l 2,51,52
 629.116210938 706.173828125 629.116210938 706.173828125 642.275390625 745.87109375 c 0,53,54
 668.705078125 825.615234375 668.705078125 825.615234375 804.583984375 825.615234375 c 2,55,-1
 894.216796875 825.615234375 l 1,56,-1
 955.407226562 794.8984375 l 2,57,58
 1026.08691406 759.438476562 1026.08691406 759.438476562 1022.36914062 654.696289062 c 0,59,60
 1020.03027344 588.481445312 1020.03027344 588.481445312 1004.67871094 560.740234375 c 0,61,62
 970.853515625 499.704101562 970.853515625 499.704101562 903.071289062 489.548828125 c 2,63,-1
 875.512695312 485.413085938 l 1,64,-1
 875.456054688 382.940429688 l 2,65,66
 875.407226562 280.41796875 875.407226562 280.41796875 863.668945312 231.403320312 c 128,-1,67
 851.948242188 182.37109375 851.948242188 182.37109375 814.7734375 148.237304688 c 0,68,69
 737.3046875 77.138671875 737.3046875 77.138671875 691.396484375 58.4912109375 c 0,70,71
 653.96875 43.2890625 653.96875 43.2890625 541.45703125 43.84765625 c 128,-1,0
 428.963867188 44.384765625 428.963867188 44.384765625 400.203125 52.306640625 c 128,-1,1
259.512695312 560.458007812 m 0,72,73
 281.341796875 568.657226562 281.341796875 568.657226562 290.323242188 572.733398438 c 0,74,75
 323.317382812 587.696289062 323.317382812 587.696289062 331.962890625 663.099609375 c 2,76,-1
 334.858398438 688.458984375 l 1,77,-1
 305.325195312 698.516601562 l 2,78,79
 275.803710938 708.57421875 275.803710938 708.57421875 206.067382812 708.57421875 c 2,80,-1
 136.323242188 708.57421875 l 1,81,-1
 136.323242188 665.44921875 l 2,82,83
 136.323242188 622.34375 136.323242188 622.34375 123.991210938 610.01171875 c 128,-1,84
 111.678710938 597.698242188 111.678710938 597.698242188 105.305664062 597.698242188 c 1,85,-1
 132.09375 560.17578125 l 2,86,87
 151.705078125 547.967773438 151.705078125 547.967773438 194.844726562 550.174804688 c 128,-1,88
 238 552.399414062 238 552.399414062 259.512695312 560.458007812 c 0,72,73
887.129882812 595.423828125 m 0,89,90
 924.140625 621.334960938 924.140625 621.334960938 924.670898438 669.001953125 c 0,91,92
 924.807617188 681.759765625 924.807617188 681.759765625 910.948242188 694.456054688 c 0,93,94
 875.302734375 727.052734375 875.302734375 727.052734375 802.478515625 727.052734375 c 2,95,-1
 747.323242188 727.052734375 l 1,96,-1
 737.491210938 698.234375 l 2,97,98
 712.606445312 625.1171875 712.606445312 625.1171875 739.991210938 597.698242188 c 0,99,100
 752.323242188 585.366210938 752.323242188 585.366210938 812.5546875 585.366210938 c 128,-1,101
 872.762695312 585.366210938 872.762695312 585.366210938 887.129882812 595.423828125 c 0,89,90
EndSplineSet
LCarets2: 3 0 0 0
Ligature2: "'clig' Kontextuelle Ligaturen in Lateinisch Nachschlagetabelle 0 Subtabelle" m u t i
EndChar

StartChar: paka
Encoding: 1114131 -1 36
Width: 1024
GlyphClass: 1
Flags: W
LayerCount: 2
Fore
SplineSet
178.426757812 -20.607421875 m 0,0,1
 169.501953125 -9.876953125 169.501953125 -9.876953125 167.708984375 125.31640625 c 128,-1,2
 165.916992188 260.509765625 165.916992188 260.509765625 174.516601562 274.44140625 c 0,3,4
 182.296875 287.03125 182.296875 287.03125 194.61328125 308.071289062 c 0,5,6
 238.555664062 382.967773438 238.555664062 382.967773438 292.818359375 411.071289062 c 0,7,8
 310.767578125 420.349609375 310.767578125 420.349609375 353.952148438 435.076171875 c 0,9,10
 463.928710938 472.459960938 463.928710938 472.459960938 540.530273438 440.452148438 c 0,11,12
 562.6484375 431.223632812 562.6484375 431.223632812 584.614257812 431.223632812 c 0,13,14
 693.184570312 431.223632812 693.184570312 431.223632812 749.592773438 370.08984375 c 0,15,16
 837.666015625 274.506835938 837.666015625 274.506835938 838.416015625 215.618164062 c 0,17,18
 838.791992188 187.901367188 838.791992188 187.901367188 847.572265625 172.494140625 c 128,-1,19
 856.379882812 157.114257812 856.379882812 157.114257812 856.595703125 88.2373046875 c 0,20,21
 856.791992188 26.212890625 856.791992188 26.212890625 849.034179688 12.1533203125 c 128,-1,22
 841.27734375 -1.9072265625 841.27734375 -1.9072265625 808.864257812 1.7451171875 c 0,23,24
 763.740234375 6.82421875 763.740234375 6.82421875 758.220703125 72.166015625 c 0,25,26
 754.150390625 120.16015625 754.150390625 120.16015625 746.978515625 137.47265625 c 128,-1,27
 739.791015625 154.77734375 739.791015625 154.77734375 739.72265625 180.59765625 c 0,28,29
 739.588867188 233.903320312 739.588867188 233.903320312 683.250976562 287.84375 c 0,30,31
 636.858398438 332.28125 636.858398438 332.28125 561.716796875 332.885742188 c 0,32,33
 533.435546875 333.090820312 533.435546875 333.090820312 518.028320312 341.891601562 c 0,34,35
 478.63671875 364.418945312 478.63671875 364.418945312 398.806640625 338.20703125 c 0,36,37
 359.420898438 325.27734375 359.420898438 325.27734375 313.986328125 279.5546875 c 2,38,-1
 268.548828125 233.8359375 l 1,39,-1
 265.465820312 119.481445312 l 1,40,-1
 262.3828125 5.146484375 l 1,41,-1
 242.267578125 -12.8251953125 l 2,42,43
 201.892578125 -48.8515625 201.892578125 -48.8515625 178.426757812 -20.607421875 c 0,0,1
211.475585938 449.926757812 m 0,44,45
 178.216796875 463.297851562 178.216796875 463.297851562 188.59765625 504.89453125 c 0,46,47
 207.056640625 579.057617188 207.056640625 579.057617188 267.006835938 579.057617188 c 0,48,49
 280.90234375 579.057617188 280.90234375 579.057617188 311.41015625 600.750976562 c 128,-1,50
 341.869140625 622.409179688 341.869140625 622.409179688 365.25 629.438476562 c 1,51,-1
 352.110351562 665.193359375 l 1,52,53
 233.995117188 726.017578125 233.995117188 726.017578125 207.208984375 812.049804688 c 0,54,55
 202.739257812 826.310546875 202.739257812 826.310546875 206.474609375 841.188476562 c 0,56,57
 211.931640625 862.956054688 211.931640625 862.956054688 245.475585938 871.787109375 c 128,-1,58
 279.020507812 880.618164062 279.020507812 880.618164062 292.94921875 863.952148438 c 0,59,60
 361.90234375 781.551757812 361.90234375 781.551757812 399.483398438 759.526367188 c 0,61,62
 425.662109375 744.200195312 425.662109375 744.200195312 450.107421875 715.612304688 c 2,63,-1
 474.528320312 687.055664062 l 1,64,-1
 505.30078125 721.58984375 l 2,65,66
 536.0625 756.11328125 536.0625 756.11328125 562.599609375 762.814453125 c 128,-1,67
 589.12109375 769.469726562 589.12109375 769.469726562 607.473632812 788.814453125 c 128,-1,68
 625.811523438 808.143554688 625.811523438 808.143554688 662.779296875 826.712890625 c 128,-1,69
 699.71484375 845.265625 699.71484375 845.265625 713.215820312 857.635742188 c 0,70,71
 727.130859375 870.409179688 727.130859375 870.409179688 753.946289062 873.19921875 c 128,-1,72
 780.762695312 875.990234375 780.762695312 875.990234375 791.025390625 865.739257812 c 0,73,74
 799.94921875 856.814453125 799.94921875 856.814453125 801.225585938 830.310546875 c 128,-1,75
 802.500976562 803.805664062 802.500976562 803.805664062 794.802734375 787.252929688 c 0,76,77
 780.345703125 756.239257812 780.345703125 756.239257812 673.983398438 703.016601562 c 0,78,79
 648.228515625 690.104492188 648.228515625 690.104492188 644.299804688 683.784179688 c 128,-1,80
 640.360351562 677.413085938 640.360351562 677.413085938 616.364257812 665.193359375 c 128,-1,81
 592.33984375 652.90625 592.33984375 652.90625 586.060546875 641.168945312 c 128,-1,82
 579.75390625 629.411132812 579.75390625 629.411132812 610.047851562 607.631835938 c 128,-1,83
 640.391601562 585.849609375 640.391601562 585.849609375 670.975585938 570.352539062 c 0,84,85
 727.465820312 541.724609375 727.465820312 541.724609375 727.465820312 502.1875 c 0,86,87
 727.465820312 462.015625 727.465820312 462.015625 677.48046875 462.015625 c 0,88,89
 644.071289062 462.015625 644.071289062 462.015625 537.8046875 535.631835938 c 0,90,91
 492.879882812 566.743164062 492.879882812 566.743164062 486.690429688 566.743164062 c 0,92,93
 475.038085938 566.743164062 475.038085938 566.743164062 328.817382812 490.890625 c 0,94,95
 302.854492188 477.413085938 302.854492188 477.413085938 302.649414062 470.154296875 c 0,96,97
 300.893554688 413.998046875 300.893554688 413.998046875 211.475585938 449.926757812 c 0,44,45
EndSplineSet
Validated: 524321
LCarets2: 3 0 0 0
Ligature2: "'clig' Kontextuelle Ligaturen in Lateinisch Nachschlagetabelle 0 Subtabelle" p a k a
EndChar

StartChar: pali
Encoding: 1114132 -1 37
Width: 1024
GlyphClass: 1
Flags: W
LayerCount: 2
Fore
SplineSet
158.875 -83.2392578125 m 0,0,1
 97.5419921875 -58.494140625 97.5419921875 -58.494140625 143.798828125 68.0341796875 c 0,2,3
 212.255859375 255.243164062 212.255859375 255.243164062 259.693359375 299.6171875 c 0,4,5
 314.965820312 351.327148438 314.965820312 351.327148438 423.750976562 387.859375 c 0,6,7
 506.864257812 415.775390625 506.864257812 415.775390625 567.561523438 415.775390625 c 128,-1,8
 628.263671875 415.775390625 628.263671875 415.775390625 671.21875 395.171875 c 0,9,10
 771.104492188 347.303710938 771.104492188 347.303710938 792.000976562 289.50390625 c 0,11,12
 799.508789062 268.71484375 799.508789062 268.71484375 813.732421875 265.159179688 c 128,-1,13
 827.947265625 261.590820312 827.947265625 261.590820312 831.81640625 244.743164062 c 128,-1,14
 835.713867188 227.887695312 835.713867188 227.887695312 850.126953125 206.337890625 c 0,15,16
 932.26953125 83.44140625 932.26953125 83.44140625 879.359375 30.53125 c 0,17,18
 869.404296875 20.5771484375 869.404296875 20.5771484375 841.833984375 22.966796875 c 128,-1,19
 814.263671875 25.3564453125 814.263671875 25.3564453125 805.818359375 36.9033203125 c 0,20,21
 798.13671875 47.4443359375 798.13671875 47.4443359375 782.20703125 96.8720703125 c 128,-1,22
 766.249023438 146.352539062 766.249023438 146.352539062 752.5234375 163.36328125 c 128,-1,23
 738.767578125 180.447265625 738.767578125 180.447265625 717.23828125 215.624023438 c 0,24,25
 651.384765625 323.297851562 651.384765625 323.297851562 562.31640625 315.55859375 c 0,26,27
 480.501953125 308.466796875 480.501953125 308.466796875 355.360351562 244.1796875 c 0,28,29
 329.170898438 230.728515625 329.170898438 230.728515625 304.528320312 181.7109375 c 128,-1,30
 279.8828125 132.694335938 279.8828125 132.694335938 279.8828125 125.333007812 c 0,31,32
 279.8828125 106.28515625 279.8828125 106.28515625 233.206054688 13.330078125 c 0,33,34
 224.44140625 -4.111328125 224.44140625 -4.111328125 233.67578125 -17.29296875 c 0,35,36
 242.724609375 -30.2109375 242.724609375 -30.2109375 242.58203125 -50.341796875 c 128,-1,37
 242.439453125 -70.4716796875 242.439453125 -70.4716796875 233.243164062 -79.66796875 c 0,38,39
 225.349609375 -87.5615234375 225.349609375 -87.5615234375 200.4375 -88.7568359375 c 128,-1,40
 175.525390625 -89.9521484375 175.525390625 -89.9521484375 158.875 -83.2392578125 c 0,0,1
304.66015625 462.33984375 m 2,41,42
 268.76953125 496.556640625 268.76953125 496.556640625 261.404296875 514.337890625 c 128,-1,43
 254.041992188 532.09765625 254.041992188 532.09765625 256.346679688 617.1484375 c 128,-1,44
 258.646484375 702.180664062 258.646484375 702.180664062 275.709960938 737.272460938 c 0,45,46
 319.608398438 827.578125 319.608398438 827.578125 367.82421875 838.053710938 c 0,47,48
 428.727539062 851.213867188 428.727539062 851.213867188 492.94921875 900.165039062 c 0,49,50
 512.044921875 914.733398438 512.044921875 914.733398438 606.83203125 914.733398438 c 0,51,52
 705.044921875 914.733398438 705.044921875 914.733398438 792.245117188 879.3359375 c 0,53,54
 814.926757812 870.1328125 814.926757812 870.1328125 832.287109375 852.020507812 c 2,55,-1
 849.67578125 833.879882812 l 1,56,-1
 851.348632812 734.170898438 l 2,57,58
 853.03125 634.448242188 853.03125 634.448242188 845.182617188 621.75390625 c 0,59,60
 809.461914062 563.799804688 809.461914062 563.799804688 794.708007812 560.09375 c 0,61,62
 781.022460938 556.657226562 781.022460938 556.657226562 773.333984375 535.354492188 c 128,-1,63
 765.626953125 514.043945312 765.626953125 514.043945312 727.577148438 495.03125 c 128,-1,64
 689.552734375 476.001953125 689.552734375 476.001953125 679.490234375 467.170898438 c 128,-1,65
 669.51953125 458.358398438 669.51953125 458.358398438 627.774414062 443.221679688 c 128,-1,66
 586.052734375 428.088867188 586.052734375 428.088867188 463.322265625 428.088867188 c 2,67,-1
 340.565429688 428.088867188 l 1,68,-1
 304.66015625 462.33984375 l 2,41,42
594.048828125 541.370117188 m 0,69,70
 673.95703125 572.75390625 673.95703125 572.75390625 728.592773438 634.80078125 c 2,71,-1
 754.196289062 663.901367188 l 1,72,-1
 754.196289062 717.646484375 l 2,73,74
 754.196289062 771.374023438 754.196289062 771.374023438 738.649414062 786.920898438 c 0,75,76
 709.3984375 816.171875 709.3984375 816.171875 619.239257812 816.171875 c 0,77,78
 569.80078125 816.171875 569.80078125 816.171875 506.465820312 785.811523438 c 0,79,80
 389.752929688 729.888671875 389.752929688 729.888671875 368.462890625 684.166015625 c 0,81,82
 313.247070312 565.5625 313.247070312 565.5625 392.337890625 532.81640625 c 0,83,84
 410.436523438 525.328125 410.436523438 525.328125 490.451171875 528.71875 c 128,-1,85
 570.466796875 532.109375 570.466796875 532.109375 594.048828125 541.370117188 c 0,69,70
EndSplineSet
Validated: 524321
LCarets2: 3 0 0 0
Ligature2: "'clig' Kontextuelle Ligaturen in Lateinisch Nachschlagetabelle 0 Subtabelle" p a l i
EndChar

StartChar: puka
Encoding: 1114133 -1 38
Width: 1024
GlyphClass: 1
Flags: W
LayerCount: 2
Fore
SplineSet
239.828125 129.875 m 4,0,1
 213.735351562 140.353515625 213.735351562 140.353515625 213.735351562 190.896484375 c 4,2,3
 213.735351562 214.383789062 213.735351562 214.383789062 204.504882812 236.501953125 c 4,4,5
 194.380859375 260.728515625 194.380859375 260.728515625 194.266601562 477.783203125 c 132,-1,6
 194.153320312 694.837890625 194.153320312 694.837890625 204.260742188 714.368164062 c 4,7,8
 217.095703125 739.19921875 217.095703125 739.19921875 257.96875 739.408203125 c 4,9,10
 293.818359375 739.588867188 293.818359375 739.588867188 293.818359375 600.447265625 c 6,11,-1
 293.818359375 480.774414062 l 5,12,-1
 512.504882812 480.774414062 l 5,13,-1
 731.172851562 480.774414062 l 5,14,-1
 731.267578125 568.545898438 l 6,15,16
 731.370117188 656.479492188 731.370117188 656.479492188 735.120117188 670.435546875 c 4,17,18
 740.662109375 691.133789062 740.662109375 691.133789062 772.750976562 699.602539062 c 132,-1,19
 804.840820312 708.0703125 804.840820312 708.0703125 820.053710938 692.84375 c 4,20,21
 829.735351562 683.184570312 829.735351562 683.184570312 829.735351562 440.732421875 c 4,22,23
 829.735351562 233.485351562 829.735351562 233.485351562 824.474609375 204.959960938 c 132,-1,24
 819.21484375 176.434570312 819.21484375 176.434570312 781.779296875 180.651367188 c 4,25,26
 734.657226562 185.953125 734.657226562 185.953125 732.262695312 293.086914062 c 6,27,-1
 730.270507812 382.211914062 l 5,28,-1
 553.618164062 382.061523438 l 6,29,30
 376.984375 381.924804688 376.984375 381.924804688 349.255859375 375.838867188 c 4,31,32
 321.702148438 369.826171875 321.702148438 369.826171875 307.672851562 366.646484375 c 4,33,34
 293.818359375 363.501953125 293.818359375 363.501953125 293.818359375 330.477539062 c 132,-1,35
 293.818359375 297.478515625 293.818359375 297.478515625 303.047851562 275.359375 c 4,36,37
 312.846679688 251.897460938 312.846679688 251.897460938 312.680664062 197.48046875 c 132,-1,38
 312.514648438 143.063476562 312.514648438 143.063476562 302.616210938 133.165039062 c 4,39,40
 282.270507812 112.819335938 282.270507812 112.819335938 239.828125 129.875 c 4,0,1
EndSplineSet
Validated: 524321
LCarets2: 3 0 0 0
Ligature2: "'clig' Kontextuelle Ligaturen in Lateinisch Nachschlagetabelle 0 Subtabelle" p u k a
EndChar

StartChar: pula
Encoding: 1114134 -1 39
Width: 1024
GlyphClass: 1
Flags: W
LayerCount: 2
Fore
SplineSet
347.162109375 167.374023438 m 4,0,1
 281.0859375 190.965820312 281.0859375 190.965820312 246.5703125 258.473632812 c 4,2,3
 231.71875 287.544921875 231.71875 287.544921875 231.71875 380.420898438 c 4,4,5
 231.71875 515.434570312 231.71875 515.434570312 294.431640625 515.772460938 c 4,6,7
 330.26953125 515.946289062 330.26953125 515.946289062 330.35546875 424.541992188 c 4,8,9
 330.421875 352.577148438 330.421875 352.577148438 344.869140625 321.5625 c 132,-1,10
 359.322265625 290.501953125 359.322265625 290.501953125 379.158203125 273.813476562 c 132,-1,11
 399.009765625 257.126953125 399.009765625 257.126953125 452.41796875 257.270507812 c 4,12,13
 528.826171875 257.45703125 528.826171875 257.45703125 583.61328125 303.891601562 c 4,14,15
 611.93359375 327.916015625 611.93359375 327.916015625 629.93359375 337.672851562 c 132,-1,16
 647.85546875 347.373046875 647.85546875 347.373046875 669.0546875 390.02734375 c 132,-1,17
 690.27734375 432.706054688 690.27734375 432.706054688 693.53125 496.372070312 c 132,-1,18
 696.80859375 560.06640625 696.80859375 560.06640625 714.09765625 574.9140625 c 4,19,20
 753.732421875 608.98828125 753.732421875 608.98828125 782.599609375 580.083984375 c 4,21,22
 792.28125 570.40234375 792.28125 570.40234375 792.28125 486.145507812 c 132,-1,23
 792.28125 401.879882812 792.28125 401.879882812 773.802734375 362.844726562 c 132,-1,24
 755.322265625 323.801757812 755.322265625 323.801757812 755.322265625 314.569335938 c 132,-1,25
 755.322265625 305.325195312 755.322265625 305.325195312 732.650390625 285.86328125 c 4,26,27
 710.7265625 267.014648438 710.7265625 267.014648438 674.44921875 234.260742188 c 4,28,29
 638.8359375 202.106445312 638.8359375 202.106445312 595.626953125 180.364257812 c 6,30,-1
 552.3515625 158.576171875 l 5,31,-1
 461.345703125 158.83984375 l 6,32,33
 370.392578125 159.096679688 370.392578125 159.096679688 347.162109375 167.374023438 c 4,0,1
EndSplineSet
Validated: 524321
LCarets2: 3 0 0 0
Ligature2: "'clig' Kontextuelle Ligaturen in Lateinisch Nachschlagetabelle 0 Subtabelle" p u l a
EndChar

StartChar: taka
Encoding: 1114136 -1 41
Width: 1024
GlyphClass: 1
Flags: W
LayerCount: 2
Fore
SplineSet
222.1875 21.572265625 m 0,0,1
 169.8125 53.1572265625 169.8125 53.1572265625 147.125 70.7685546875 c 0,2,3
 125.337890625 87.7060546875 125.337890625 87.7060546875 120.205078125 87.7060546875 c 128,-1,4
 115.123046875 87.7060546875 115.123046875 87.7060546875 84.486328125 114.889648438 c 128,-1,5
 53.9296875 142.03125 53.9296875 142.03125 41.099609375 146.114257812 c 0,6,7
 9.96875 156.017578125 9.96875 156.017578125 9.96875 201.665039062 c 0,8,9
 9.96875 233.657226562 9.96875 233.657226562 83.9609375 306.392578125 c 0,10,11
 140.390625 361.865234375 140.390625 361.865234375 160.564453125 392.623046875 c 128,-1,12
 180.775390625 423.43359375 180.775390625 423.43359375 197.673828125 438.831054688 c 128,-1,13
 214.5546875 454.176757812 214.5546875 454.176757812 235.779296875 487.143554688 c 128,-1,14
 256.97265625 520.09375 256.97265625 520.09375 280.314453125 530.061523438 c 128,-1,15
 303.6875 540.033203125 303.6875 540.033203125 314.302734375 569.93359375 c 128,-1,16
 324.904296875 599.793945312 324.904296875 599.793945312 378.42578125 657.235351562 c 128,-1,17
 431.939453125 714.649414062 431.939453125 714.649414062 453.48828125 749.857421875 c 128,-1,18
 474.990234375 785.044921875 474.990234375 785.044921875 511.013671875 824.48828125 c 0,19,20
 558.52734375 876.515625 558.52734375 876.515625 606.51171875 852.047851562 c 0,21,22
 644.361328125 832.717773438 644.361328125 832.717773438 644.654296875 744.98828125 c 0,23,24
 644.875 682.145507812 644.875 682.145507812 653.677734375 666.748046875 c 128,-1,25
 662.482421875 651.356445312 662.482421875 651.356445312 662.92578125 620.540039062 c 128,-1,26
 663.3359375 589.796875 663.3359375 589.796875 672.15625 574.3515625 c 128,-1,27
 680.974609375 558.936523438 680.974609375 558.936523438 681.1796875 530.4375 c 128,-1,28
 681.384765625 501.98046875 681.384765625 501.98046875 690.63671875 479.8125 c 128,-1,29
 699.884765625 457.73046875 699.884765625 457.73046875 699.884765625 432.458007812 c 128,-1,30
 699.884765625 407.206054688 699.884765625 407.206054688 706.482421875 394.897460938 c 128,-1,31
 713.05078125 382.615234375 713.05078125 382.615234375 718.419921875 353.709960938 c 0,32,33
 728.51953125 299.228515625 728.51953125 299.228515625 746.65625 241.706054688 c 0,34,35
 755.375 213.975585938 755.375 213.975585938 755.341796875 198.938476562 c 128,-1,36
 755.3203125 183.8828125 755.3203125 183.8828125 821.53125 248.229492188 c 128,-1,37
 887.73046875 312.515625 887.73046875 312.515625 909.021484375 324.872070312 c 128,-1,38
 930.361328125 337.223632812 930.361328125 337.223632812 942.896484375 344.798828125 c 0,39,40
 956.13671875 352.779296875 956.13671875 352.779296875 975.921875 352.16796875 c 128,-1,41
 995.70703125 351.556640625 995.70703125 351.556640625 1004.3515625 342.900390625 c 0,42,43
 1014.03125 333.248046875 1014.03125 333.248046875 1014.03125 303.34765625 c 128,-1,44
 1014.03125 273.45703125 1014.03125 273.45703125 988.27734375 251.424804688 c 128,-1,45
 962.54296875 229.380859375 962.54296875 229.380859375 942.9921875 222.305664062 c 128,-1,46
 923.451171875 215.255859375 923.451171875 215.255859375 916.5234375 196.137695312 c 128,-1,47
 909.6328125 177.071289062 909.6328125 177.071289062 848.62109375 116.298828125 c 128,-1,48
 787.630859375 55.556640625 787.630859375 55.556640625 760.69921875 52.6083984375 c 0,49,50
 688.599609375 44.7158203125 688.599609375 44.7158203125 650.783203125 168.748046875 c 0,51,52
 638.28125 209.701171875 638.28125 209.701171875 638.28125 221.892578125 c 128,-1,53
 638.28125 234.080078125 638.28125 234.080078125 629.03125 256.162109375 c 128,-1,54
 619.802734375 278.28125 619.802734375 278.28125 619.802734375 302.3515625 c 128,-1,55
 619.802734375 326.4765625 619.802734375 326.4765625 610.552734375 348.55859375 c 128,-1,56
 601.322265625 370.677734375 601.322265625 370.677734375 601.322265625 394.747070312 c 128,-1,57
 601.322265625 418.873046875 601.322265625 418.873046875 592.07421875 440.955078125 c 128,-1,58
 582.84375 463.073242188 582.84375 463.073242188 582.84375 487.162109375 c 128,-1,59
 582.84375 511.26953125 582.84375 511.26953125 573.59375 533.3515625 c 128,-1,60
 564.36328125 555.469726562 564.36328125 555.469726562 564.36328125 579.55859375 c 128,-1,61
 564.36328125 603.665039062 564.36328125 603.665039062 555.115234375 625.747070312 c 128,-1,62
 545.884765625 647.866210938 545.884765625 647.866210938 545.884765625 672.70703125 c 0,63,64
 545.884765625 732.010742188 545.884765625 732.010742188 527.837890625 677.3125 c 0,65,66
 521.1328125 657.060546875 521.1328125 657.060546875 480.87890625 617.25 c 128,-1,67
 440.623046875 577.473632812 440.623046875 577.473632812 413.634765625 531.2265625 c 128,-1,68
 386.70703125 485.0625 386.70703125 485.0625 327.236328125 426.499023438 c 128,-1,69
 267.81640625 368.03515625 267.81640625 368.03515625 256.36328125 346.434570312 c 128,-1,70
 244.984375 324.870117188 244.984375 324.870117188 198.3125 278.815429688 c 128,-1,71
 151.63671875 232.772460938 151.63671875 232.772460938 151.63671875 219.692382812 c 0,72,73
 151.63671875 174.630859375 151.63671875 174.630859375 254.541015625 122.502929688 c 0,74,75
 285.90234375 106.634765625 285.90234375 106.634765625 298.869140625 90.1689453125 c 0,76,77
 329.6796875 51.029296875 329.6796875 51.029296875 302.12109375 23.470703125 c 0,78,79
 293.322265625 14.6728515625 293.322265625 14.6728515625 264.607421875 13.9912109375 c 128,-1,80
 235.892578125 13.3095703125 235.892578125 13.3095703125 222.1875 21.572265625 c 0,0,1
126.990234375 198.58203125 m 1,81,-1
 124.283203125 204.748046875 l 1,82,-1
 120.466796875 192.434570312 l 1,83,-1
 126.990234375 198.58203125 l 1,81,-1
558.197265625 722.185546875 m 1,84,-1
 548.96875 722.185546875 l 1,85,-1
 558.197265625 722.185546875 l 1,84,-1
EndSplineSet
Validated: 524321
LCarets2: 3 0 0 0
Ligature2: "'clig' Kontextuelle Ligaturen in Lateinisch Nachschlagetabelle 0 Subtabelle" t a k a
EndChar

StartChar: tama
Encoding: 1114137 -1 42
Width: 1024
GlyphClass: 1
Flags: W
LayerCount: 2
Fore
SplineSet
253.848632812 225.209960938 m 128,-1,1
 238.403320312 232.059570312 238.403320312 232.059570312 180.720703125 235.850585938 c 128,-1,2
 122.986328125 239.659179688 122.986328125 239.659179688 111.579101562 253.727539062 c 128,-1,3
 100.192382812 267.790039062 100.192382812 267.790039062 108.157226562 287.33984375 c 0,4,5
 127.370117188 334.619140625 127.370117188 334.619140625 202.602539062 334.619140625 c 0,6,7
 248.095703125 334.619140625 248.095703125 334.619140625 270.203125 325.370117188 c 128,-1,8
 292.287109375 316.147460938 292.287109375 316.147460938 533.349609375 316.102539062 c 0,9,10
 774.254882812 316.102539062 774.254882812 316.102539062 797.8671875 309.541992188 c 0,11,12
 845.203125 296.396484375 845.203125 296.396484375 845.203125 258.051757812 c 0,13,14
 845.203125 226.528320312 845.203125 226.528320312 812.219726562 222.087890625 c 128,-1,15
 779.236328125 217.6484375 779.236328125 217.6484375 547.541992188 217.97265625 c 0,16,0
 269.231445312 218.358398438 269.231445312 218.358398438 253.848632812 225.209960938 c 128,-1,1
359.403320312 541.21875 m 128,-1,18
 338.62109375 550.22265625 338.62109375 550.22265625 305.90234375 550.22265625 c 0,19,20
 248.557617188 550.22265625 248.557617188 550.22265625 235.556640625 574.510742188 c 0,21,22
 218.44140625 606.475585938 218.44140625 606.475585938 268.00390625 636.716796875 c 0,23,24
 316.733398438 666.422851562 316.733398438 666.422851562 381.079101562 639.536132812 c 0,25,26
 403.212890625 630.291015625 403.212890625 630.291015625 625.745117188 630.268554688 c 128,-1,27
 848.196289062 630.268554688 848.196289062 630.268554688 871.784179688 623.708007812 c 0,28,29
 919.120117188 610.5625 919.120117188 610.5625 919.120117188 572.217773438 c 0,30,31
 919.120117188 540.842773438 919.120117188 540.842773438 887.677734375 536.309570312 c 128,-1,32
 856.235351562 531.77734375 856.235351562 531.77734375 639.95703125 531.98828125 c 0,33,17
 380.149414062 532.216796875 380.149414062 532.216796875 359.403320312 541.21875 c 128,-1,18
EndSplineSet
Validated: 524321
LCarets2: 3 0 0 0
Ligature2: "'clig' Kontextuelle Ligaturen in Lateinisch Nachschlagetabelle 0 Subtabelle" t a m a
EndChar

StartChar: tiki
Encoding: 1114138 -1 43
Width: 1024
GlyphClass: 1
Flags: W
LayerCount: 2
Fore
SplineSet
298.764648438 -28.0625 m 128,-1,1
 279.965820312 -19.9033203125 279.965820312 -19.9033203125 227.930664062 -17.1025390625 c 0,2,3
 142.189453125 -12.4970703125 142.189453125 -12.4970703125 116.05859375 30.158203125 c 0,4,5
 102.4296875 52.416015625 102.4296875 52.416015625 76.6005859375 84.3740234375 c 0,6,7
 34.810546875 135.958007812 34.810546875 135.958007812 38.513671875 257.172851562 c 0,8,9
 41.916015625 369.119140625 41.916015625 369.119140625 87.8232421875 374.2890625 c 0,10,11
 121.303710938 378.067382812 121.303710938 378.067382812 128.541015625 362.540039062 c 128,-1,12
 135.779296875 346.993164062 135.779296875 346.993164062 135.779296875 271.328125 c 0,13,14
 135.779296875 186 135.779296875 186 150.046875 168.573242188 c 128,-1,15
 164.296875 151.184570312 164.296875 151.184570312 178.208007812 128.174804688 c 0,16,17
 207.120117188 80.33203125 207.120117188 80.33203125 259.04296875 80.33203125 c 0,18,19
 294.421875 80.33203125 294.421875 80.33203125 320.58984375 71.0830078125 c 128,-1,20
 346.7578125 61.8525390625 346.7578125 61.8525390625 402.233398438 61.8525390625 c 0,21,22
 477.767578125 61.8525390625 477.767578125 61.8525390625 585.296875 113.60546875 c 0,23,24
 631.259765625 135.76953125 631.259765625 135.76953125 648.536132812 135.76953125 c 128,-1,25
 665.755859375 135.76953125 665.755859375 135.76953125 732.547851562 169.26953125 c 0,26,27
 850.340820312 228.353515625 850.340820312 228.353515625 850.340820312 285.37109375 c 0,28,29
 850.340820312 310.072265625 850.340820312 310.072265625 869.139648438 368.762695312 c 128,-1,30
 887.958007812 427.470703125 887.958007812 427.470703125 885.551757812 504.921875 c 128,-1,31
 883.1640625 582.373046875 883.1640625 582.373046875 876.077148438 607 c 128,-1,32
 869.008789062 631.739257812 869.008789062 631.739257812 866.01953125 647.3984375 c 0,33,34
 855.69921875 701.670898438 855.69921875 701.670898438 792.647460938 764.891601562 c 0,35,36
 751.064453125 806.568359375 751.064453125 806.568359375 593.267578125 811.493164062 c 0,37,38
 485.211914062 814.858398438 485.211914062 814.858398438 433.796875 768.669921875 c 0,39,40
 409.959960938 747.2578125 409.959960938 747.2578125 377.794921875 731.015625 c 0,41,42
 316.360351562 700.073242188 316.360351562 700.073242188 289.045898438 654.31640625 c 0,43,44
 275.510742188 631.6640625 275.510742188 631.6640625 259.926757812 614.70703125 c 2,45,-1
 244.361328125 597.76953125 l 1,46,47
 274.458007812 597.919921875 274.458007812 597.919921875 308.2578125 613.82421875 c 0,48,49
 383.623046875 649.221679688 383.623046875 649.221679688 425.299804688 627.189453125 c 0,50,51
 440.71484375 619.03125 440.71484375 619.03125 442.556640625 596.905273438 c 0,52,53
 445.508789062 561.958007812 445.508789062 561.958007812 361.796875 519.810546875 c 2,54,-1
 318.672851562 498.098632812 l 1,55,-1
 231.55859375 500.184570312 l 2,56,57
 120.025390625 502.873046875 120.025390625 502.873046875 102.091796875 544.173828125 c 0,58,59
 93.61328125 563.668945312 93.61328125 563.668945312 64.625 627.471679688 c 0,60,61
 35.712890625 691.068359375 35.712890625 691.068359375 39.078125 716.108398438 c 0,62,63
 44.642578125 757.502929688 44.642578125 757.502929688 87.69140625 762.353515625 c 0,64,65
 114.799804688 765.3984375 114.799804688 765.3984375 134.444335938 748.875 c 128,-1,66
 154.0703125 732.369140625 154.0703125 732.369140625 164.860351562 702.008789062 c 128,-1,67
 175.6328125 671.686523438 175.6328125 671.686523438 178.903320312 671.686523438 c 128,-1,68
 182.174804688 671.686523438 182.174804688 671.686523438 193.115234375 702.498046875 c 0,69,70
 212.0078125 755.717773438 212.0078125 755.717773438 290.2109375 803.879882812 c 0,71,72
 329.651367188 828.130859375 329.651367188 828.130859375 352.7734375 848.376953125 c 0,73,74
 375.65234375 868.454101562 375.65234375 868.454101562 418.833007812 890.204101562 c 2,75,-1
 461.95703125 911.916992188 l 1,76,-1
 573.190429688 911.916992188 l 2,77,78
 684.422851562 911.916992188 684.422851562 911.916992188 706.530273438 902.686523438 c 128,-1,79
 728.694335938 893.4375 728.694335938 893.4375 752.41796875 893.4375 c 128,-1,80
 776.254882812 893.4375 776.254882812 893.4375 828.196289062 869.431640625 c 128,-1,81
 880.193359375 845.387695312 880.193359375 845.387695312 890.58984375 824.765625 c 128,-1,82
 901.022460938 804.086914062 901.022460938 804.086914062 919.294921875 784.836914062 c 0,83,84
 967.3828125 734.098632812 967.3828125 734.098632812 967.3828125 669.073242188 c 0,85,86
 967.3828125 654.73046875 967.3828125 654.73046875 976.61328125 632.603515625 c 128,-1,87
 985.862304688 610.49609375 985.862304688 610.49609375 985.787109375 494.790039062 c 128,-1,88
 985.711914062 379.139648438 985.711914062 379.139648438 967.3828125 326.728515625 c 128,-1,89
 949.072265625 274.411132812 949.072265625 274.411132812 948.978515625 251.6640625 c 0,90,91
 948.846679688 214.856445312 948.846679688 214.856445312 910.516601562 156.580078125 c 0,92,93
 884.780273438 117.421875 884.780273438 117.421875 862.936523438 110.221679688 c 128,-1,94
 841.223632812 103.078125 841.223632812 103.078125 773.961914062 70.1240234375 c 128,-1,95
 706.831054688 37.20703125 706.831054688 37.20703125 698.258789062 37.20703125 c 128,-1,96
 689.705078125 37.20703125 689.705078125 37.20703125 664.758789062 24.4990234375 c 128,-1,97
 639.850585938 11.791015625 639.850585938 11.791015625 566.53515625 -12.4775390625 c 128,-1,98
 493.2578125 -36.7099609375 493.2578125 -36.7099609375 405.373046875 -36.46484375 c 128,-1,0
 317.48828125 -36.2392578125 317.48828125 -36.2392578125 298.764648438 -28.0625 c 128,-1,1
EndSplineSet
Validated: 524321
LCarets2: 3 0 0 0
Ligature2: "'clig' Kontextuelle Ligaturen in Lateinisch Nachschlagetabelle 0 Subtabelle" t i k i
EndChar

StartChar: tiku
Encoding: 1114139 -1 44
Width: 1024
GlyphClass: 1
Flags: W
LayerCount: 2
Fore
SplineSet
857.435546875 -25.4970703125 m 0,0,1
 843.458007812 -19.87890625 843.458007812 -19.87890625 837.415039062 -3.935546875 c 128,-1,2
 831.342773438 12.00390625 831.342773438 12.00390625 831.342773438 396.629882812 c 2,3,-1
 831.342773438 781.235351562 l 1,4,-1
 511.030273438 781.235351562 l 1,5,-1
 190.698242188 781.235351562 l 1,6,-1
 190.698242188 402.833984375 l 2,7,8
 190.698242188 81.1455078125 190.698242188 81.1455078125 185.935546875 41.80078125 c 128,-1,9
 181.172851562 2.45703125 181.172851562 2.45703125 142.7421875 6.798828125 c 128,-1,10
 104.364257812 11.11328125 104.364257812 11.11328125 99.7919921875 52.1552734375 c 128,-1,11
 95.21875 93.197265625 95.21875 93.197265625 95.21875 433.288085938 c 2,12,-1
 95.21875 836.428710938 l 1,13,-1
 115.352539062 856.581054688 l 1,14,-1
 135.504882812 876.71484375 l 1,15,-1
 500.352539062 876.71484375 l 2,16,17
 865.20703125 876.71484375 865.20703125 876.71484375 885.145507812 865.830078125 c 0,18,19
 926.7109375 843.107421875 926.7109375 843.107421875 928.533203125 401.461914062 c 0,20,21
 930.224609375 -12.20703125 930.224609375 -12.20703125 920.393554688 -22.0380859375 c 0,22,23
 899.862304688 -42.5693359375 899.862304688 -42.5693359375 857.435546875 -25.4970703125 c 0,0,1
EndSplineSet
Validated: 524321
LCarets2: 3 0 0 0
Ligature2: "'clig' Kontextuelle Ligaturen in Lateinisch Nachschlagetabelle 0 Subtabelle" t i k u
EndChar

StartChar: tila
Encoding: 1114140 -1 45
Width: 1024
GlyphClass: 1
Flags: W
LayerCount: 2
Fore
SplineSet
514.047851562 -64.517578125 m 0,0,1
 500.110351562 -58.916015625 500.110351562 -58.916015625 494.026367188 -42.9560546875 c 128,-1,2
 487.955078125 -27.0166015625 487.955078125 -27.0166015625 487.955078125 209.775390625 c 2,3,-1
 487.955078125 446.528320312 l 1,4,-1
 310.681640625 446.528320312 l 2,5,6
 133.428710938 446.528320312 133.428710938 446.528320312 119.723632812 456.115234375 c 0,7,8
 87.982421875 478.364257812 87.982421875 478.364257812 124.892578125 532.77734375 c 0,9,10
 143.640625 560.372070312 143.640625 560.372070312 173.506835938 619.0078125 c 128,-1,11
 203.33203125 677.548828125 203.33203125 677.548828125 249.510742188 722.194335938 c 128,-1,12
 295.696289062 766.841796875 295.696289062 766.841796875 303.369140625 766.841796875 c 128,-1,13
 311.021484375 766.841796875 311.021484375 766.841796875 370.236328125 824.346679688 c 128,-1,14
 429.39453125 881.831054688 429.39453125 881.831054688 450.99609375 896.346679688 c 128,-1,15
 472.3984375 910.693359375 472.3984375 910.693359375 492.786132812 928.154296875 c 128,-1,16
 513.024414062 945.486328125 513.024414062 945.486328125 526.755859375 945.486328125 c 0,17,18
 591.373046875 945.486328125 591.373046875 945.486328125 614.245117188 911.780273438 c 0,19,20
 620.270507812 902.875976562 620.270507812 902.875976562 645.038085938 862.169921875 c 0,21,22
 669.6171875 821.772460938 669.6171875 821.772460938 690.361328125 789.64453125 c 0,23,24
 710.895507812 757.842773438 710.895507812 757.842773438 728.241210938 723.735351562 c 0,25,26
 745.390625 689.9140625 745.390625 689.9140625 762.060546875 674.4453125 c 128,-1,27
 778.677734375 659.05859375 778.677734375 659.05859375 789.7890625 637.486328125 c 0,28,29
 809.846679688 598.564453125 809.846679688 598.564453125 908.372070312 517.04296875 c 0,30,31
 918.549804688 508.626953125 918.549804688 508.626953125 918.936523438 487.337890625 c 128,-1,32
 919.323242188 466.049804688 919.323242188 466.049804688 909.48046875 456.209960938 c 128,-1,33
 899.799804688 446.528320312 899.799804688 446.528320312 743.16796875 446.528320312 c 2,34,-1
 586.516601562 446.528320312 l 1,35,-1
 586.516601562 197.481445312 l 2,36,37
 586.516601562 -51.546875 586.516601562 -51.546875 576.8359375 -61.228515625 c 0,38,39
 556.489257812 -81.57421875 556.489257812 -81.57421875 514.047851562 -64.517578125 c 0,0,1
487.955078125 671.362304688 m 2,40,41
 487.955078125 797.65234375 487.955078125 797.65234375 481.657226562 797.65234375 c 128,-1,42
 475.361328125 797.65234375 475.361328125 797.65234375 416.21875 736.048828125 c 128,-1,43
 357.09375 674.4453125 357.09375 674.4453125 345.685546875 674.4453125 c 128,-1,44
 334.258789062 674.4453125 334.258789062 674.4453125 324.950195312 656.3984375 c 128,-1,45
 315.624023438 638.359375 315.624023438 638.359375 302.767578125 634.291015625 c 0,46,47
 287.086914062 629.3125 287.086914062 629.3125 259.60546875 558.9453125 c 2,48,-1
 254.19140625 545.090820312 l 1,49,-1
 371.063476562 545.090820312 l 1,50,-1
 487.955078125 545.090820312 l 1,51,-1
 487.955078125 671.362304688 l 2,40,41
721.455078125 555.862304688 m 1,52,53
 713.065429688 566.817382812 713.065429688 566.817382812 685.286132812 598.234375 c 0,54,55
 623.46875 668.13671875 623.46875 668.13671875 604.563476562 722.344726562 c 0,56,57
 597.62109375 742.21484375 597.62109375 742.21484375 592.081054688 742.21484375 c 128,-1,58
 586.516601562 742.21484375 586.516601562 742.21484375 586.516601562 643.65234375 c 2,59,-1
 586.516601562 545.090820312 l 1,60,-1
 658.122070312 545.090820312 l 1,61,-1
 721.455078125 555.862304688 l 1,52,53
EndSplineSet
Validated: 524321
LCarets2: 3 0 0 0
Ligature2: "'clig' Kontextuelle Ligaturen in Lateinisch Nachschlagetabelle 0 Subtabelle" t i l a
EndChar

StartChar: tilu
Encoding: 1114141 -1 46
Width: 1024
GlyphClass: 1
Flags: W
LayerCount: 2
Fore
SplineSet
586.048828125 -55.611328125 m 128,-1,1
 570.78125 -49.1220703125 570.78125 -49.1220703125 559.185546875 -38.6552734375 c 0,2,3
 513.186523438 2.7734375 513.186523438 2.7734375 477.448242188 123.071289062 c 0,4,5
 469.022460938 151.483398438 469.022460938 151.483398438 453.780273438 172.549804688 c 0,6,7
 438.672851562 193.427734375 438.672851562 193.427734375 426.465820312 215.504882812 c 0,8,9
 406.515625 251.696289062 406.515625 251.696289062 330.8125 266.6796875 c 128,-1,10
 255.108398438 281.663085938 255.108398438 281.663085938 224.077148438 255.565429688 c 0,11,12
 206.243164062 240.538085938 206.243164062 240.538085938 191.047851562 236.748046875 c 0,13,14
 154.728515625 227.624023438 154.728515625 227.624023438 154.728515625 74.5888671875 c 0,15,16
 154.728515625 -12.5537109375 154.728515625 -12.5537109375 147.798828125 -29.1435546875 c 128,-1,17
 140.870117188 -45.7333984375 140.870117188 -45.7333984375 106.114257812 -41.8134765625 c 0,18,19
 54.84765625 -36.0390625 54.84765625 -36.0390625 57.2568359375 110.099609375 c 0,20,21
 59.2314453125 230.501953125 59.2314453125 230.501953125 70.9609375 252.049804688 c 0,22,23
 112.560546875 328.4296875 112.560546875 328.4296875 174.4296875 360.5 c 0,24,25
 192.412109375 369.817382812 192.412109375 369.817382812 272.079101562 369.56640625 c 128,-1,26
 351.748046875 369.314453125 351.748046875 369.314453125 374.35546875 359.879882812 c 0,27,28
 396.517578125 350.630859375 396.517578125 350.630859375 411.313476562 350.630859375 c 0,29,30
 451.360351562 350.630859375 451.360351562 350.630859375 486.33984375 317.99609375 c 0,31,32
 500.864257812 304.495117188 500.864257812 304.495117188 516.135742188 274.533203125 c 128,-1,33
 531.344726562 244.594726562 531.344726562 244.594726562 549.052734375 220.185546875 c 128,-1,34
 566.7578125 195.747070312 566.7578125 195.747070312 577.17578125 163.845703125 c 0,35,36
 599.123046875 96.7568359375 599.123046875 96.7568359375 618.946289062 80.3037109375 c 0,37,38
 628.255859375 72.5693359375 628.255859375 72.5693359375 632.21875 54.5302734375 c 2,39,-1
 636.185546875 36.4833984375 l 1,40,-1
 709.237304688 36.4833984375 l 1,41,-1
 782.290039062 36.4833984375 l 1,42,-1
 810.732421875 61.091796875 l 2,43,44
 839.091796875 85.6630859375 839.091796875 85.6630859375 854.213867188 89.4775390625 c 128,-1,45
 869.291015625 93.255859375 869.291015625 93.255859375 869.291015625 153.901367188 c 128,-1,46
 869.291015625 214.569335938 869.291015625 214.569335938 876.114257812 229.547851562 c 0,47,48
 885.475585938 250.07421875 885.475585938 250.07421875 914.515625 256.61328125 c 128,-1,49
 943.555664062 263.15234375 943.555664062 263.15234375 958.584960938 248.12109375 c 0,50,51
 968.701171875 238.02734375 968.701171875 238.02734375 966.724609375 146.64453125 c 2,52,-1
 964.76953125 55.2822265625 l 1,53,-1
 924.728515625 14.62109375 l 2,54,55
 884.581054688 -26.1083984375 884.581054688 -26.1083984375 857.616210938 -42.076171875 c 128,-1,56
 830.53515625 -58.1376953125 830.53515625 -58.1376953125 715.9296875 -60.123046875 c 128,-1,0
 601.262695312 -62.119140625 601.262695312 -62.119140625 586.048828125 -55.611328125 c 128,-1,1
674.478515625 444.663085938 m 0,57,58
 576.458984375 501.666015625 576.458984375 501.666015625 545.555664062 590.879882812 c 0,59,60
 535.916992188 618.701171875 535.916992188 618.701171875 502.638671875 686.622070312 c 128,-1,61
 469.31640625 754.661132812 469.31640625 754.661132812 428.852539062 780.447265625 c 0,62,63
 359.081054688 824.962890625 359.081054688 824.962890625 306.247070312 824.962890625 c 0,64,65
 296.291015625 824.962890625 296.291015625 824.962890625 259.64453125 791.256835938 c 128,-1,66
 222.9375 757.525390625 222.9375 757.525390625 207.327148438 753.640625 c 128,-1,67
 191.676757812 749.7109375 191.676757812 749.7109375 191.57421875 742.662109375 c 128,-1,68
 191.470703125 735.609375 191.470703125 735.609375 163.864257812 689.724609375 c 0,69,70
 124.60546875 624.478515625 124.60546875 624.478515625 145.479492188 574.525390625 c 0,71,72
 154.728515625 552.362304688 154.728515625 552.362304688 154.728515625 522.809570312 c 0,73,74
 154.728515625 470.147460938 154.728515625 470.147460938 107.1484375 475.51171875 c 0,75,76
 37.6865234375 483.345703125 37.6865234375 483.345703125 37.6865234375 610.938476562 c 0,77,78
 37.6865234375 685.46875 37.6865234375 685.46875 85.4169921875 764.919921875 c 0,79,80
 135.977539062 849.0703125 135.977539062 849.0703125 216.14453125 895.796875 c 0,81,82
 238.107421875 908.626953125 238.107421875 908.626953125 249.907226562 915.94921875 c 0,83,84
 264.173828125 924.803710938 264.173828125 924.803710938 317.083984375 921.53515625 c 128,-1,85
 369.994140625 918.266601562 369.994140625 918.266601562 401.125 906.606445312 c 0,86,87
 547.788085938 851.6796875 547.788085938 851.6796875 558.301757812 818.458984375 c 0,88,89
 562.143554688 806.3828125 562.143554688 806.3828125 576.216796875 789.508789062 c 128,-1,90
 590.3046875 772.58203125 590.3046875 772.58203125 598.192382812 747.962890625 c 0,91,92
 606.182617188 723.1328125 606.182617188 723.1328125 626.221679688 683.087890625 c 0,93,94
 646.330078125 642.803710938 646.330078125 642.803710938 653.123046875 617.612304688 c 0,95,96
 673.598632812 541.58984375 673.598632812 541.58984375 724.540039062 541.58984375 c 0,97,98
 734.024414062 541.58984375 734.024414062 541.58984375 776.161132812 562.794921875 c 128,-1,99
 818.255859375 583.98828125 818.255859375 583.98828125 843.76171875 633.02734375 c 128,-1,100
 869.291015625 682.068359375 869.291015625 682.068359375 869.291015625 698.27734375 c 128,-1,101
 869.291015625 714.470703125 869.291015625 714.470703125 878.520507812 736.58984375 c 128,-1,102
 887.76953125 758.73046875 887.76953125 758.73046875 887.76953125 819.849609375 c 0,103,104
 887.76953125 923.525390625 887.76953125 923.525390625 946.346679688 923.525390625 c 0,105,106
 986.313476562 923.525390625 986.313476562 923.525390625 986.313476562 812.330078125 c 0,107,108
 986.313476562 720.491210938 986.313476562 720.491210938 977.609375 697.262695312 c 128,-1,109
 968.920898438 674.038085938 968.920898438 674.038085938 965.671875 650.848632812 c 0,110,111
 958.36328125 598.6328125 958.36328125 598.6328125 899.3125 512.790039062 c 0,112,113
 881.637695312 487.057617188 881.637695312 487.057617188 849.26953125 474.81640625 c 128,-1,114
 816.823242188 462.537109375 816.823242188 462.537109375 789.208007812 449.870117188 c 0,115,116
 720.0703125 418.15234375 720.0703125 418.15234375 674.478515625 444.663085938 c 0,57,58
EndSplineSet
Validated: 524321
LCarets2: 3 0 0 0
Ligature2: "'clig' Kontextuelle Ligaturen in Lateinisch Nachschlagetabelle 0 Subtabelle" t i l u
EndChar

StartChar: timi
Encoding: 1114142 -1 47
Width: 1024
GlyphClass: 1
Flags: W
LayerCount: 2
Fore
SplineSet
410.161132812 -61.3837890625 m 4,0,1
 357.53125 -31.205078125 357.53125 -31.205078125 401.174804688 12.439453125 c 4,2,3
 419.909179688 31.173828125 419.909179688 31.173828125 439.091796875 27.328125 c 4,4,5
 471.073242188 20.931640625 471.073242188 20.931640625 477.666992188 -5.3447265625 c 4,6,7
 487.836914062 -45.810546875 487.836914062 -45.810546875 452.571289062 -61.8720703125 c 4,8,9
 429.411132812 -72.4267578125 429.411132812 -72.4267578125 410.161132812 -61.3837890625 c 4,0,1
400.4609375 189.411132812 m 132,-1,11
 382.451171875 207.420898438 382.451171875 207.420898438 382.451171875 263.6484375 c 4,12,13
 382.451171875 336.37890625 382.451171875 336.37890625 422.3046875 374.692382812 c 4,14,15
 444.813476562 396.342773438 444.813476562 396.342773438 463.680664062 425.76953125 c 132,-1,16
 482.588867188 455.256835938 482.588867188 455.256835938 500.225585938 464.400390625 c 132,-1,17
 517.830078125 473.493164062 517.830078125 473.493164062 548.200195312 499.5546875 c 132,-1,18
 578.653320312 525.657226562 578.653320312 525.657226562 599.088867188 538.0546875 c 4,19,20
 641.411132812 563.723632812 641.411132812 563.723632812 684.661132812 654.96484375 c 4,21,22
 696.330078125 679.637695312 696.330078125 679.637695312 696.466796875 706.153320312 c 132,-1,23
 696.59375 732.721679688 696.59375 732.721679688 664.264648438 766.94921875 c 4,24,25
 598.600585938 836.466796875 598.600585938 836.466796875 553.501953125 836.63671875 c 4,26,27
 536.580078125 836.739257812 536.580078125 836.739257812 512.181640625 846.505859375 c 4,28,29
 487.609375 856.315429688 487.609375 856.315429688 423.225585938 854.194335938 c 132,-1,30
 358.765625 852.084960938 358.765625 852.084960938 343.5 837.7265625 c 4,31,32
 306.563476562 802.991210938 306.563476562 802.991210938 260.333984375 826.879882812 c 4,33,34
 198.21484375 859.013671875 198.21484375 859.013671875 271.9140625 925.592773438 c 4,35,36
 295.424804688 946.850585938 295.424804688 946.850585938 315.866210938 950.651367188 c 132,-1,37
 336.212890625 954.40625 336.212890625 954.40625 440.971679688 952.287109375 c 132,-1,38
 545.642578125 950.168945312 545.642578125 950.168945312 603.375 927.359375 c 4,39,40
 706.0546875 886.75390625 706.0546875 886.75390625 758.202148438 833.72265625 c 6,41,-1
 792.078125 799.283203125 l 5,42,-1
 792.078125 702.48828125 l 6,43,44
 792.078125 605.681640625 792.078125 605.681640625 780.459960938 584.130859375 c 4,45,46
 723.8984375 479.19140625 723.8984375 479.19140625 628.84765625 430.224609375 c 4,47,48
 536.451171875 382.578125 536.451171875 382.578125 536.451171875 338.392578125 c 4,49,50
 536.451171875 331.991210938 536.451171875 331.991210938 508.72265625 300.775390625 c 132,-1,51
 481.013671875 269.576171875 481.013671875 269.576171875 481.013671875 230.166992188 c 4,52,53
 481.013671875 171.40234375 481.013671875 171.40234375 440.05078125 171.40234375 c 4,54,10
 418.469726562 171.40234375 418.469726562 171.40234375 400.4609375 189.411132812 c 132,-1,11
EndSplineSet
Validated: 524321
LCarets2: 3 0 0 0
Ligature2: "'clig' Kontextuelle Ligaturen in Lateinisch Nachschlagetabelle 0 Subtabelle" t i m i
EndChar

StartChar: tipi
Encoding: 1114143 -1 48
Width: 1024
GlyphClass: 1
Flags: W
LayerCount: 2
Fore
SplineSet
676.274414062 -51.5361328125 m 0,0,1
 655.536132812 -42.53125 655.536132812 -42.53125 465.088867188 -42.53125 c 128,-1,2
 274.659179688 -42.53125 274.659179688 -42.53125 252.530273438 -33.30078125 c 128,-1,3
 230.448242188 -24.0517578125 230.448242188 -24.0517578125 203.126953125 -24.0517578125 c 0,4,5
 108.719726562 -24.0517578125 108.719726562 -24.0517578125 108.719726562 35.0703125 c 0,6,7
 108.719726562 48.9716796875 108.719726562 48.9716796875 125.130859375 68.419921875 c 128,-1,8
 141.538085938 87.931640625 141.538085938 87.931640625 163.630859375 84.5302734375 c 128,-1,9
 185.7421875 81.1416015625 185.7421875 81.1416015625 225.94921875 75.67578125 c 128,-1,10
 266.243164062 70.19921875 266.243164062 70.19921875 279.450195312 63.1181640625 c 128,-1,11
 292.701171875 56.03125 292.701171875 56.03125 484.263671875 56.03125 c 128,-1,12
 675.807617188 56.03125 675.807617188 56.03125 697.950195312 46.7822265625 c 128,-1,13
 720.053710938 37.5517578125 720.053710938 37.5517578125 771.66015625 37.5517578125 c 2,14,-1
 823.28125 37.5517578125 l 1,15,-1
 823.28125 422.551757812 l 1,16,-1
 823.28125 807.551757812 l 1,17,-1
 482.928710938 807.645507812 l 2,18,19
 142.583007812 807.744140625 142.583007812 807.744140625 127.198242188 815.485351562 c 0,20,21
 83.8916015625 837.28125 83.8916015625 837.28125 119.05859375 876.731445312 c 0,22,23
 145.213867188 906.116210938 145.213867188 906.116210938 507.3671875 905.982421875 c 0,24,25
 844.837890625 905.842773438 844.837890625 905.842773438 870.598632812 894.139648438 c 0,26,27
 918.637695312 872.3359375 918.637695312 872.3359375 920.453125 400.049804688 c 0,28,29
 922.143554688 -41.3271484375 922.143554688 -41.3271484375 912.3125 -51.1787109375 c 0,30,31
 902.021484375 -61.4697265625 902.021484375 -61.4697265625 800.94140625 -61.62109375 c 128,-1,32
 699.861328125 -61.7724609375 699.861328125 -61.7724609375 676.274414062 -51.5361328125 c 0,0,1
EndSplineSet
Validated: 524321
LCarets2: 3 0 0 0
Ligature2: "'clig' Kontextuelle Ligaturen in Lateinisch Nachschlagetabelle 0 Subtabelle" t i p i
EndChar

StartChar: titi
Encoding: 1114144 -1 49
Width: 1024
GlyphClass: 1
Flags: W
LayerCount: 2
Fore
SplineSet
72.8525390625 34.5302734375 m 128,-1,1
 53.748046875 42.8349609375 53.748046875 42.8349609375 49.91796875 52.8203125 c 0,2,3
 42.318359375 72.6455078125 42.318359375 72.6455078125 66.3046875 98.4697265625 c 128,-1,4
 90.291015625 124.293945312 90.291015625 124.293945312 116.315429688 124.293945312 c 0,5,6
 136.681640625 124.293945312 136.681640625 124.293945312 158.763671875 133.54296875 c 128,-1,7
 180.881835938 142.7734375 180.881835938 142.7734375 220.329101562 142.7734375 c 128,-1,8
 259.850585938 142.7734375 259.850585938 142.7734375 285.994140625 152.022460938 c 128,-1,9
 312.219726562 161.259765625 312.219726562 161.259765625 608.619140625 161.21484375 c 128,-1,10
 904.93359375 161.21484375 904.93359375 161.21484375 928.575195312 154.654296875 c 0,11,12
 975.911132812 141.500976562 975.911132812 141.500976562 975.911132812 103.18359375 c 0,13,14
 975.911132812 71.51171875 975.911132812 71.51171875 940.512695312 67.08203125 c 128,-1,15
 905.115234375 62.65234375 905.115234375 62.65234375 650.521484375 62.4833984375 c 0,16,17
 344.512695312 62.2568359375 344.512695312 62.2568359375 329.118164062 53.4599609375 c 128,-1,18
 313.724609375 44.6640625 313.724609375 44.6640625 264.431640625 44.2109375 c 128,-1,19
 215.180664062 43.7890625 215.180664062 43.7890625 199.745117188 34.9814453125 c 0,20,21
 184.872070312 26.4658203125 184.872070312 26.4658203125 138.491210938 26.302734375 c 128,-1,0
 92.1103515625 26.1396484375 92.1103515625 26.1396484375 72.8525390625 34.5302734375 c 128,-1,1
241.252929688 399.603515625 m 0,22,23
 192.823242188 412.23046875 192.823242188 412.23046875 216.024414062 498.766601562 c 0,24,25
 221.564453125 519.462890625 221.564453125 519.462890625 253.647460938 527.926757812 c 128,-1,26
 285.73046875 536.388671875 285.73046875 536.388671875 300.958007812 521.174804688 c 0,27,28
 312.098632812 510.024414062 312.098632812 510.024414062 311.452148438 462.955078125 c 128,-1,29
 310.805664062 415.885742188 310.805664062 415.885742188 299.359375 405.524414062 c 0,30,31
 281.272460938 389.153320312 281.272460938 389.153320312 241.252929688 399.603515625 c 0,22,23
518.44140625 436.561523438 m 0,32,33
 470.048828125 449.178710938 470.048828125 449.178710938 493.212890625 535.724609375 c 0,34,35
 498.75390625 556.420898438 498.75390625 556.420898438 530.84375 564.884765625 c 128,-1,36
 562.93359375 573.34765625 562.93359375 573.34765625 578.146484375 558.1328125 c 0,37,38
 589.298828125 546.981445312 589.298828125 546.981445312 588.657226562 499.9140625 c 128,-1,39
 588.014648438 452.845703125 588.014648438 452.845703125 576.567382812 442.482421875 c 0,40,41
 558.458007812 426.12109375 558.458007812 426.12109375 518.44140625 436.561523438 c 0,32,33
795.6484375 473.520507812 m 0,42,43
 747.21875 486.147460938 747.21875 486.147460938 770.420898438 572.68359375 c 0,44,45
 775.9609375 593.379882812 775.9609375 593.379882812 808.043945312 601.84375 c 128,-1,46
 840.126953125 610.305664062 840.126953125 610.305664062 855.353515625 595.091796875 c 0,47,48
 866.50390625 583.9375 866.50390625 583.9375 865.857421875 536.872070312 c 128,-1,49
 865.2109375 489.805664062 865.2109375 489.805664062 853.774414062 479.44140625 c 0,50,51
 835.665039062 463.079101562 835.665039062 463.079101562 795.6484375 473.520507812 c 0,42,43
72.8525390625 699.80078125 m 0,52,53
 40.6513671875 713.83203125 40.6513671875 713.83203125 51.384765625 741.892578125 c 0,54,55
 62.703125 771.510742188 62.703125 771.510742188 122.669921875 793.288085938 c 2,56,-1
 163.350585938 808.044921875 l 1,57,-1
 529.45703125 808.044921875 l 2,58,59
 895.599609375 808.044921875 895.599609375 808.044921875 920.529296875 798.081054688 c 0,60,61
 957.431640625 783.291015625 957.431640625 783.291015625 957.431640625 747.306640625 c 0,62,63
 957.431640625 717.627929688 957.431640625 717.627929688 915.7578125 713.564453125 c 128,-1,64
 874.083007812 709.500976562 874.083007812 709.500976562 569.66796875 709.500976562 c 0,65,66
 201.290039062 709.500976562 201.290039062 709.500976562 179.141601562 700.251953125 c 0,67,68
 124.370117188 677.369140625 124.370117188 677.369140625 72.8525390625 699.80078125 c 0,52,53
EndSplineSet
Validated: 524321
LCarets2: 3 0 0 0
Ligature2: "'clig' Kontextuelle Ligaturen in Lateinisch Nachschlagetabelle 0 Subtabelle" t i t i
EndChar

StartChar: tu
Encoding: 1114145 -1 50
Width: 1024
GlyphClass: 1
Flags: W
LayerCount: 2
Fore
SplineSet
266.224609375 -1.3984375 m 4,0,1
 253.067382812 4.9931640625 253.067382812 4.9931640625 246.204101562 20.0517578125 c 4,2,3
 240.578125 32.375 240.578125 32.375 239.264648438 383.004882812 c 132,-1,4
 237.951171875 733.634765625 237.951171875 733.634765625 243.365234375 778.640625 c 4,5,6
 247.2734375 811.286132812 247.2734375 811.286132812 264.5703125 820.223632812 c 4,7,8
 306.01171875 841.666992188 306.01171875 841.666992188 328.22265625 819.490234375 c 4,9,10
 337.905273438 809.788085938 337.905273438 809.788085938 337.905273438 450.638671875 c 132,-1,11
 337.905273438 91.4423828125 337.905273438 91.4423828125 347.134765625 69.3603515625 c 4,12,13
 367.1171875 21.498046875 367.1171875 21.498046875 346.703125 1.0830078125 c 4,14,15
 338.3828125 -7.2216796875 338.3828125 -7.2216796875 310.122070312 -8.0947265625 c 132,-1,16
 281.861328125 -8.9677734375 281.861328125 -8.9677734375 266.224609375 -1.3984375 c 4,0,1
671.978515625 34.751953125 m 4,17,18
 658.041015625 40.3544921875 658.041015625 40.3544921875 651.958007812 56.314453125 c 132,-1,19
 645.905273438 72.25 645.905273438 72.25 645.905273438 373.920898438 c 132,-1,20
 645.905273438 675.579101562 645.905273438 675.579101562 655.134765625 697.673828125 c 132,-1,21
 664.38671875 719.845703125 664.38671875 719.845703125 664.420898438 732.903320312 c 4,22,23
 664.799804688 815.03515625 664.799804688 815.03515625 708.016601562 838.965820312 c 4,24,25
 752.260742188 863.498046875 752.260742188 863.498046875 772.514648438 832.592773438 c 4,26,27
 802.278320312 787.161132812 802.278320312 787.161132812 761.046875 678.236328125 c 6,28,-1
 744.711914062 635.129882812 l 5,29,-1
 744.579101562 341.416992188 l 6,30,31
 744.451171875 47.7265625 744.451171875 47.7265625 734.766601562 38.0419921875 c 4,32,33
 714.420898438 17.6953125 714.420898438 17.6953125 671.978515625 34.751953125 c 4,17,18
EndSplineSet
Validated: 524321
LCarets2: 1 0
Ligature2: "'clig' Kontextuelle Ligaturen in Lateinisch Nachschlagetabelle 0 Subtabelle" t u
EndChar

StartChar: tuki
Encoding: 1114146 -1 51
Width: 1024
GlyphClass: 1
Flags: W
LayerCount: 2
Fore
SplineSet
347.21875 -125.5625 m 4,0,1
 328.70703125 -117.555664062 328.70703125 -117.555664062 301.98828125 -113.325195312 c 4,2,3
 226.041015625 -101.307617188 226.041015625 -101.307617188 160.865234375 -4.705078125 c 4,4,5
 142.16796875 23.015625 142.16796875 23.015625 126.201171875 37.85546875 c 4,6,7
 93.529296875 68.2666015625 93.529296875 68.2666015625 111.7265625 127.319335938 c 4,8,9
 121.3984375 158.74609375 121.3984375 158.74609375 126.482421875 182.813476562 c 4,10,11
 131.62109375 207.106445312 131.62109375 207.106445312 159.34375 223.193359375 c 132,-1,12
 187.044921875 239.29296875 187.044921875 239.29296875 196.302734375 268.009765625 c 132,-1,13
 205.54296875 296.727539062 205.54296875 296.727539062 233.861328125 326.19140625 c 132,-1,14
 262.248046875 355.743164062 262.248046875 355.743164062 275.3125 377.756835938 c 4,15,16
 307.2421875 431.392578125 307.2421875 431.392578125 383.087890625 477.654296875 c 4,17,18
 411.322265625 494.854492188 411.322265625 494.854492188 474.46875 516.154296875 c 132,-1,19
 537.509765625 537.377929688 537.509765625 537.377929688 641.4765625 537.377929688 c 132,-1,20
 745.42578125 537.377929688 745.42578125 537.377929688 792.732421875 521.568359375 c 4,21,22
 890.263671875 488.975585938 890.263671875 488.975585938 935.490234375 442.030273438 c 6,23,-1
 957.052734375 419.659179688 l 5,24,-1
 956.958984375 286.018554688 l 6,25,26
 956.86328125 152.340820312 956.86328125 152.340820312 939.96484375 110.34375 c 4,27,28
 901.478515625 14.7197265625 901.478515625 14.7197265625 827.697265625 -24.0302734375 c 4,29,30
 778.4140625 -49.9033203125 778.4140625 -49.9033203125 762.015625 -61.9287109375 c 4,31,32
 689.455078125 -115.255859375 689.455078125 -115.255859375 595.908203125 -115.505859375 c 4,33,34
 573.380859375 -115.643554688 573.380859375 -115.643554688 551.44921875 -124.830078125 c 4,35,36
 529.81640625 -133.85546875 529.81640625 -133.85546875 448.76953125 -134.149414062 c 132,-1,37
 367.724609375 -134.443359375 367.724609375 -134.443359375 347.21875 -125.5625 c 4,0,1
516.615234375 -26.267578125 m 4,38,39
 532.029296875 -17.44921875 532.029296875 -17.44921875 549.6640625 -17.244140625 c 132,-1,40
 567.3359375 -17.0390625 567.3359375 -17.0390625 595.87109375 -8.0517578125 c 132,-1,41
 624.390625 0.8974609375 624.390625 0.8974609375 670.27734375 13.548828125 c 132,-1,42
 716.119140625 26.197265625 716.119140625 26.197265625 728.796875 37.611328125 c 132,-1,43
 741.462890625 49.0439453125 741.462890625 49.0439453125 779.234375 68.8359375 c 4,44,45
 820.611328125 90.537109375 820.611328125 90.537109375 849.091796875 167.774414062 c 4,46,47
 861.57421875 201.638671875 861.57421875 201.638671875 861.57421875 281.337890625 c 6,48,-1
 861.57421875 361.006835938 l 5,49,-1
 830.80078125 390.671875 l 6,50,51
 800.03125 420.333984375 800.03125 420.333984375 786.134765625 420.561523438 c 132,-1,52
 772.244140625 420.767578125 772.244140625 420.767578125 756.86328125 429.584960938 c 132,-1,53
 741.458984375 438.391601562 741.458984375 438.391601562 655.21875 438.571289062 c 132,-1,54
 569.00390625 438.764648438 569.00390625 438.764648438 511.220703125 417.252929688 c 132,-1,55
 453.421875 395.728515625 453.421875 395.728515625 433.994140625 383.697265625 c 4,56,57
 364.1484375 340.553710938 364.1484375 340.553710938 227.771484375 122.375 c 4,58,59
 219.18359375 108.662109375 219.18359375 108.662109375 229.7265625 86.431640625 c 132,-1,60
 240.3359375 64.1142578125 240.3359375 64.1142578125 273.546875 27.4599609375 c 132,-1,61
 306.8046875 -9.3076171875 306.8046875 -9.3076171875 333.17578125 -16.1728515625 c 132,-1,62
 359.6015625 -23.0615234375 359.6015625 -23.0615234375 368.78125 -29.181640625 c 4,63,64
 379.751953125 -36.4697265625 379.751953125 -36.4697265625 441.380859375 -35.2529296875 c 132,-1,65
 503.0078125 -34.037109375 503.0078125 -34.037109375 516.615234375 -26.267578125 c 4,38,39
254.033203125 575.55859375 m 4,66,67
 214.22265625 613.793945312 214.22265625 613.793945312 201.283203125 635.620117188 c 132,-1,68
 188.255859375 657.560546875 188.255859375 657.560546875 153.234375 694.4609375 c 132,-1,69
 118.140625 731.471679688 118.140625 731.471679688 92.5703125 769.84375 c 132,-1,70
 66.947265625 808.255859375 66.947265625 808.255859375 66.947265625 838.704101562 c 4,71,72
 66.947265625 892.196289062 66.947265625 892.196289062 115.693359375 886.678710938 c 4,73,74
 145.572265625 883.311523438 145.572265625 883.311523438 187.166015625 818.68359375 c 4,75,76
 214.18359375 776.688476562 214.18359375 776.688476562 254.55859375 733.881835938 c 132,-1,77
 294.86328125 691.149414062 294.86328125 691.149414062 294.86328125 685.04296875 c 132,-1,78
 294.86328125 678.955078125 294.86328125 678.955078125 328.740234375 642.106445312 c 4,79,80
 381.2734375 584.953125 381.2734375 584.953125 343.666015625 553.319335938 c 4,81,82
 308.228515625 523.508789062 308.228515625 523.508789062 254.033203125 575.55859375 c 4,66,67
528.40234375 563.752929688 m 4,83,84
 492.263671875 588.092773438 492.263671875 588.092773438 492.064453125 624.604492188 c 4,85,86
 491.9609375 641.01953125 491.9609375 641.01953125 473.509765625 680.041992188 c 132,-1,87
 455.029296875 719.083984375 455.029296875 719.083984375 455.029296875 736.288085938 c 132,-1,88
 455.029296875 753.408203125 455.029296875 753.408203125 442.359375 778.303710938 c 4,89,90
 372.23046875 915.713867188 372.23046875 915.713867188 409.255859375 952.73828125 c 4,91,92
 464.9296875 1008.37109375 464.9296875 1008.37109375 505.505859375 908.899414062 c 4,93,94
 553.685546875 790.7578125 553.685546875 790.7578125 553.630859375 773.547851562 c 4,95,96
 553.630859375 760.1875 553.630859375 760.1875 572.052734375 721.192382812 c 132,-1,97
 590.53125 682.150390625 590.53125 682.150390625 590.53125 670.360351562 c 132,-1,98
 590.53125 658.639648438 590.53125 658.639648438 600.87109375 625.807617188 c 4,99,100
 617.384765625 573.413085938 617.384765625 573.413085938 580.32421875 556.534179688 c 4,101,102
 555.724609375 545.333984375 555.724609375 545.333984375 528.40234375 563.752929688 c 4,83,84
718.87109375 633.044921875 m 4,103,104
 702.435546875 641.958984375 702.435546875 641.958984375 698.681640625 659.0625 c 4,105,106
 688.92578125 703.475585938 688.92578125 703.475585938 730.771484375 764.975585938 c 4,107,108
 762.89453125 812.231445312 762.89453125 812.231445312 768.482421875 905.985351562 c 4,109,110
 772.255859375 969.700195312 772.255859375 969.700195312 789.537109375 984.526367188 c 4,111,112
 832.900390625 1021.76171875 832.900390625 1021.76171875 858.15234375 985.692382812 c 4,113,114
 867.740234375 972.016601562 867.740234375 972.016601562 867.740234375 897.018554688 c 4,115,116
 867.740234375 776.421875 867.740234375 776.421875 827.904296875 722.470703125 c 4,117,118
 812.310546875 701.301757812 812.310546875 701.301757812 812.20703125 685.569335938 c 4,119,120
 811.99609375 645.44140625 811.99609375 645.44140625 787.1875 632.612304688 c 4,121,122
 752.568359375 614.721679688 752.568359375 614.721679688 718.87109375 633.044921875 c 4,103,104
116.466796875 679.77734375 m 5,123,124
 116.466796875 704.416992188 116.466796875 704.416992188 116.466796875 778.336914062 c 1029,125,126
EndSplineSet
Validated: 524323
LCarets2: 3 0 0 0
Ligature2: "'clig' Kontextuelle Ligaturen in Lateinisch Nachschlagetabelle 0 Subtabelle" t u k i
EndChar

StartChar: tula
Encoding: 1114147 -1 52
Width: 1024
GlyphClass: 1
Flags: W
LayerCount: 2
Fore
SplineSet
231.669921875 -62.767578125 m 128,-1,1
 191.883789062 -47.9384765625 191.883789062 -47.9384765625 134.3671875 9.17578125 c 128,-1,2
 76.876953125 66.2578125 76.876953125 66.2578125 52.517578125 114.712890625 c 2,3,-1
 28.1728515625 163.17578125 l 1,4,-1
 28.1728515625 271.795898438 l 2,5,6
 28.1728515625 413.3125 28.1728515625 413.3125 75.677734375 435.852539062 c 0,7,8
 101.625976562 448.194335938 101.625976562 448.194335938 101.864257812 454.971679688 c 128,-1,9
 102.069335938 461.729492188 102.069335938 461.729492188 135.307617188 529.470703125 c 0,10,11
 179.876953125 620.28515625 179.876953125 620.28515625 226.42578125 627.713867188 c 0,12,13
 228.400390625 656.004882812 228.400390625 656.004882812 194.486328125 679.241210938 c 0,14,15
 136.25390625 719.134765625 136.25390625 719.134765625 116.752929688 778.6875 c 0,16,17
 84.4599609375 877.34375 84.4599609375 877.34375 128.201171875 924.040039062 c 0,18,19
 152.747070312 950.237304688 152.747070312 950.237304688 194.03515625 928.889648438 c 0,20,21
 241.733398438 904.208984375 241.733398438 904.208984375 209.412109375 854.897460938 c 0,22,23
 199.70703125 840.094726562 199.70703125 840.094726562 225.373046875 805.34375 c 128,-1,24
 251.02734375 770.607421875 251.02734375 770.607421875 300.962890625 746.447265625 c 128,-1,25
 350.915039062 722.291015625 350.915039062 722.291015625 402.194335938 722.291015625 c 128,-1,26
 453.440429688 722.291015625 453.440429688 722.291015625 501.771484375 746.579101562 c 0,27,28
 582.55078125 787.20703125 582.55078125 787.20703125 582.55078125 827.09375 c 0,29,30
 582.55078125 844.720703125 582.55078125 844.720703125 589.65625 862.041015625 c 128,-1,31
 596.752929688 879.33984375 596.752929688 879.33984375 601.236328125 918.456054688 c 0,32,33
 607.66015625 974.338867188 607.66015625 974.338867188 651.655273438 979.30859375 c 0,34,35
 699.618164062 984.703125 699.618164062 984.703125 699.5546875 898.961914062 c 0,36,37
 699.484375 836.186523438 699.484375 836.186523438 683.989257812 790.51171875 c 0,38,39
 650.151367188 690.840820312 650.151367188 690.840820312 580.33203125 661.025390625 c 0,40,41
 561.37109375 652.918945312 561.37109375 652.918945312 557.270507812 648.890625 c 128,-1,42
 553.170898438 644.862304688 553.170898438 644.862304688 557.98046875 639.068359375 c 0,43,44
 565.61328125 629.89453125 565.61328125 629.89453125 585.294921875 629.89453125 c 128,-1,45
 605.018554688 629.89453125 605.018554688 629.89453125 661.975585938 602.184570312 c 128,-1,46
 718.936523438 574.45703125 718.936523438 574.45703125 726.530273438 574.45703125 c 0,47,48
 761.873046875 574.45703125 761.873046875 574.45703125 882.692382812 488.959960938 c 0,49,50
 958.262695312 435.508789062 958.262695312 435.508789062 986.6875 367.51953125 c 0,51,52
 996.081054688 345.0390625 996.081054688 345.0390625 995.819335938 247.357421875 c 128,-1,53
 995.557617188 149.67578125 995.557617188 149.67578125 986.029296875 126.913085938 c 0,54,55
 976.799804688 104.793945312 976.799804688 104.793945312 976.799804688 91.3828125 c 0,56,57
 976.799804688 3.3994140625 976.799804688 3.3994140625 927.208007812 -36.8251953125 c 0,58,59
 914.047851562 -47.5244140625 914.047851562 -47.5244140625 865.021484375 -63.01171875 c 2,60,-1
 815.994140625 -78.501953125 l 1,61,-1
 543.75 -78.05078125 l 2,62,0
 271.498046875 -77.5986328125 271.498046875 -77.5986328125 231.669921875 -62.767578125 c 128,-1,1
826.295898438 32.091796875 m 128,-1,64
 857.522460938 40.9169921875 857.522460938 40.9169921875 865.021484375 68.994140625 c 0,65,66
 872.448242188 96.8369140625 872.448242188 96.8369140625 878.030273438 125.916992188 c 0,67,68
 883.538085938 154.786132812 883.538085938 154.786132812 890.53125 167.819335938 c 0,69,70
 898.416015625 182.545898438 898.416015625 182.545898438 895.020507812 245.865234375 c 128,-1,71
 891.624023438 309.184570312 891.624023438 309.184570312 881.432617188 337.291015625 c 0,72,73
 862.483398438 389.610351562 862.483398438 389.610351562 798.172851562 425.024414062 c 0,74,75
 757.981445312 447.177734375 757.981445312 447.177734375 748.750976562 455.02734375 c 0,76,77
 724.202148438 475.768554688 724.202148438 475.768554688 576.403320312 525.805664062 c 2,78,-1
 505.569335938 549.79296875 l 1,79,-1
 405.220703125 549.79296875 l 2,80,81
 261.052734375 549.79296875 261.052734375 549.79296875 210.389648438 445.534179688 c 0,82,83
 182.172851562 387.455078125 182.172851562 387.455078125 182.172851562 339.622070312 c 128,-1,84
 182.172851562 291.786132812 182.172851562 291.786132812 168.46875 282.19140625 c 128,-1,85
 154.772460938 272.603515625 154.772460938 272.603515625 140.758789062 272.603515625 c 128,-1,86
 126.735351562 272.603515625 126.735351562 272.603515625 126.735351562 235.513671875 c 0,87,88
 126.735351562 104.012695312 126.735351562 104.012695312 261.879882812 32.1103515625 c 0,89,90
 283.806640625 20.447265625 283.806640625 20.447265625 539.444335938 21.8466796875 c 128,-1,63
 795.14453125 23.265625 795.14453125 23.265625 826.295898438 32.091796875 c 128,-1,64
441.202148438 170.526367188 m 0,91,92
 417.2578125 183.801757812 417.2578125 183.801757812 416.688476562 252.790039062 c 0,93,94
 415.9765625 335.303710938 415.9765625 335.303710938 454.379882812 358.702148438 c 0,95,96
 491.440429688 381.307617188 491.440429688 381.307617188 562.961914062 346.727539062 c 0,97,98
 625.696289062 316.381835938 625.696289062 316.381835938 625.674804688 258.354492188 c 0,99,100
 625.674804688 194.060546875 625.674804688 194.060546875 582.569335938 172.538085938 c 0,101,102
 562.385742188 162.446289062 562.385742188 162.446289062 510.418945312 161.711914062 c 128,-1,103
 458.452148438 160.977539062 458.452148438 160.977539062 441.202148438 170.526367188 c 0,91,92
EndSplineSet
Validated: 524321
LCarets2: 3 0 0 0
Ligature2: "'clig' Kontextuelle Ligaturen in Lateinisch Nachschlagetabelle 0 Subtabelle" t u l a
EndChar

StartChar: tulu
Encoding: 1114148 -1 53
Width: 1024
GlyphClass: 1
Flags: W
LayerCount: 2
Fore
SplineSet
451.7578125 -58.0283203125 m 4,0,1
 425.751953125 -47.5830078125 425.751953125 -47.5830078125 425.439453125 42.244140625 c 4,2,3
 425.219726562 104.973632812 425.219726562 104.973632812 416.416015625 120.372070312 c 132,-1,4
 407.625976562 135.8125 407.625976562 135.8125 407.392578125 174.287109375 c 6,5,-1
 407.185546875 212.787109375 l 5,6,-1
 352.951171875 212.787109375 l 6,7,8
 265.604492188 212.787109375 265.604492188 212.787109375 204.346679688 277.568359375 c 4,9,10
 148.860351562 336.231445312 148.860351562 336.231445312 148.588867188 393.236328125 c 4,11,12
 148.46875 422.77734375 148.46875 422.77734375 133.34375 437.90234375 c 132,-1,13
 118.229492188 453.016601562 118.229492188 453.016601562 44.3125 453.016601562 c 132,-1,14
 -29.560546875 453.016601562 -29.560546875 453.016601562 -44.869140625 459.97265625 c 4,15,16
 -81.11328125 476.497070312 -81.11328125 476.497070312 -70.8310546875 517.478515625 c 4,17,18
 -62.271484375 551.580078125 -62.271484375 551.580078125 67.5849609375 551.580078125 c 6,19,-1
 165.958984375 551.580078125 l 5,20,-1
 169.83203125 569.193359375 l 6,21,22
 173.690429688 586.778320312 173.690429688 586.778320312 192.447265625 604.610351562 c 132,-1,23
 211.228515625 622.466796875 211.228515625 622.466796875 222.901367188 645.198242188 c 4,24,25
 269.78515625 736.372070312 269.78515625 736.372070312 370.020507812 736.372070312 c 6,26,-1
 388.70703125 736.372070312 l 5,27,-1
 388.782226562 814.9140625 l 6,28,29
 388.883789062 893.489257812 388.883789062 893.489257812 392.635742188 907.572265625 c 4,30,31
 398.190429688 928.26953125 398.190429688 928.26953125 430.2734375 936.732421875 c 132,-1,32
 462.356445312 945.1953125 462.356445312 945.1953125 477.568359375 929.98046875 c 4,33,34
 487.25 920.322265625 487.25 920.322265625 487.25 819.10546875 c 6,35,-1
 487.25 717.892578125 l 5,36,-1
 514.057617188 717.892578125 l 6,37,38
 540.911132812 717.892578125 540.911132812 717.892578125 608.032226562 684.938476562 c 132,-1,39
 675.194335938 651.986328125 675.194335938 651.986328125 710.373046875 613.97265625 c 132,-1,40
 745.55859375 575.958984375 745.55859375 575.958984375 756.44921875 545.30078125 c 6,41,-1
 767.352539062 514.62109375 l 5,42,-1
 896.801757812 514.564453125 l 6,43,44
 1097.10253906 514.497070312 1097.10253906 514.497070312 1097.10253906 456.513671875 c 4,45,46
 1097.10253906 416.040039062 1097.10253906 416.040039062 921.08984375 416.040039062 c 6,47,-1
 764.458007812 416.040039062 l 5,48,-1
 764.458007812 400.32421875 l 6,49,50
 764.458007812 366.997070312 764.458007812 366.997070312 713.53125 320.466796875 c 4,51,52
 651.073242188 263.40234375 651.073242188 263.40234375 585.3984375 242.958984375 c 4,53,54
 549.02734375 231.630859375 549.02734375 231.630859375 529.810546875 221.698242188 c 132,-1,55
 510.64453125 211.790039062 510.64453125 211.790039062 514.940429688 192.258789062 c 132,-1,56
 519.2421875 172.733398438 519.2421875 172.733398438 522.215820312 64.294921875 c 132,-1,57
 525.1953125 -44.111328125 525.1953125 -44.111328125 515.015625 -54.2685546875 c 4,58,59
 494.197265625 -75.123046875 494.197265625 -75.123046875 451.7578125 -58.0283203125 c 4,0,1
514.884765625 329.395507812 m 132,-1,61
 561.899414062 347.489257812 561.899414062 347.489257812 578.931640625 351.221679688 c 4,62,63
 613.65234375 358.859375 613.65234375 358.859375 655.744140625 422.055664062 c 4,64,65
 689.670898438 472.905273438 689.670898438 472.905273438 651.344726562 518.775390625 c 4,66,67
 636.80859375 536.14453125 636.80859375 536.14453125 632.828125 548.497070312 c 132,-1,68
 628.860351562 560.803710938 628.860351562 560.803710938 571.919921875 586.80859375 c 4,69,70
 424.866210938 653.959960938 424.866210938 653.959960938 360.452148438 622.431640625 c 4,71,72
 326.594726562 605.8671875 326.594726562 605.8671875 289.9375 549.737304688 c 132,-1,73
 253.28125 493.676757812 253.28125 493.676757812 249.407226562 473.038085938 c 4,74,75
 236.013671875 401.66796875 236.013671875 401.66796875 263.76953125 371.354492188 c 4,76,77
 276.40625 357.557617188 276.40625 357.557617188 280.481445312 344.096679688 c 4,78,79
 289.9921875 312.659179688 289.9921875 312.659179688 402.166992188 311.819335938 c 4,80,60
 467.958007812 311.334960938 467.958007812 311.334960938 514.884765625 329.395507812 c 132,-1,61
EndSplineSet
Validated: 524321
LCarets2: 3 0 0 0
Ligature2: "'clig' Kontextuelle Ligaturen in Lateinisch Nachschlagetabelle 0 Subtabelle" t u l u
EndChar

StartChar: uli
Encoding: 1114149 -1 54
Width: 1024
GlyphClass: 1
Flags: WO
LayerCount: 2
Fore
SplineSet
453.490234375 -48.181640625 m 0,0,1
 425.37890625 -30.974609375 425.37890625 -30.974609375 411.663085938 8.234375 c 0,2,3
 402.059570312 35.7548828125 402.059570312 35.7548828125 380.005859375 93.787109375 c 0,4,5
 331.052734375 222.475585938 331.052734375 222.475585938 395.815429688 238.576171875 c 0,6,7
 455.030273438 253.318359375 455.030273438 253.318359375 487.008789062 154.544921875 c 1,8,-1
 505.864257812 148.37890625 l 1,9,10
 505.864257812 165.338867188 505.864257812 165.338867188 524.34375 204.380859375 c 128,-1,11
 542.822265625 243.461914062 542.822265625 243.461914062 542.822265625 251.265625 c 0,12,13
 542.822265625 300.55859375 542.822265625 300.55859375 643.546875 447.67578125 c 0,14,15
 690.65625 516.4765625 690.65625 516.4765625 690.65625 560.674804688 c 0,16,17
 690.65625 576.024414062 690.65625 576.024414062 595.177734375 543.887695312 c 0,18,19
 445.202148438 493.373046875 445.202148438 493.373046875 398.052734375 481.513671875 c 0,20,21
 373.326171875 475.305664062 373.326171875 475.305664062 344.081054688 465.966796875 c 0,22,23
 315.15234375 456.7578125 315.15234375 456.7578125 266.310546875 458.534179688 c 128,-1,24
 217.46875 460.310546875 217.46875 460.310546875 206.8125 470.966796875 c 0,25,26
 196.923828125 480.856445312 196.923828125 480.856445312 193.502929688 506.271484375 c 128,-1,27
 190.090820312 531.65625 190.090820312 531.65625 217.828125 591.825195312 c 0,28,29
 261.065429688 685.63671875 261.065429688 685.63671875 294.095703125 780.828125 c 0,30,31
 333.447265625 894.326171875 333.447265625 894.326171875 367.22265625 926.048828125 c 0,32,33
 391.55859375 948.91796875 391.55859375 948.91796875 430.231445312 942.155273438 c 128,-1,34
 468.905273438 935.392578125 468.905273438 935.392578125 468.905273438 908.265625 c 0,35,36
 468.905273438 890.747070312 468.905273438 890.747070312 457.400390625 876.100585938 c 0,37,38
 425.98828125 835.907226562 425.98828125 835.907226562 394.030273438 741.33203125 c 0,39,40
 376.341796875 688.984375 376.341796875 688.984375 361.751953125 655.044921875 c 2,41,-1
 353.609375 636.140625 l 1,42,-1
 335.45703125 574.873046875 l 1,43,44
 350.084960938 574.961914062 350.084960938 574.961914062 592.958984375 655.81640625 c 0,45,46
 683.161132812 685.837890625 683.161132812 685.837890625 695.375 685.837890625 c 128,-1,47
 707.657226562 685.837890625 707.657226562 685.837890625 729.739257812 695.086914062 c 128,-1,48
 751.67578125 704.252929688 751.67578125 704.252929688 779.426757812 704.110351562 c 128,-1,49
 807.177734375 703.967773438 807.177734375 703.967773438 816.49609375 694.635742188 c 0,50,51
 847.880859375 663.288085938 847.880859375 663.288085938 810.743164062 552.7421875 c 0,52,53
 777.3125 453.098632812 777.3125 453.098632812 736.920898438 399.23046875 c 0,54,55
 641.384765625 272 641.384765625 272 641.384765625 211.111328125 c 0,56,57
 641.384765625 204.37890625 641.384765625 204.37890625 622.905273438 162.252929688 c 128,-1,58
 604.407226562 120.127929688 604.407226562 120.127929688 604.407226562 116.590820312 c 1,59,-1
 631.81640625 133.9609375 l 2,60,61
 659.21484375 154.868164062 659.21484375 154.868164062 691.87890625 165.504882812 c 128,-1,62
 724.543945312 176.09765625 724.543945312 176.09765625 737.258789062 187.650390625 c 0,63,64
 762.188476562 210.3046875 762.188476562 210.3046875 801.099609375 190.1875 c 0,65,66
 842.840820312 168.616210938 842.840820312 168.616210938 819.165039062 116.627929688 c 0,67,68
 810.6171875 97.896484375 810.6171875 97.896484375 726.35546875 63.1640625 c 0,69,70
 683.924804688 45.658203125 683.924804688 45.658203125 667.270507812 32.7666015625 c 0,71,72
 548.026367188 -59.5751953125 548.026367188 -59.5751953125 490.787109375 -59.498046875 c 0,73,74
 472.017578125 -59.498046875 472.017578125 -59.498046875 453.490234375 -48.181640625 c 0,0,1
EndSplineSet
LCarets2: 2 0 0
Ligature2: "'clig' Kontextuelle Ligaturen in Lateinisch Nachschlagetabelle 0 Subtabelle" u l i
EndChar

StartChar: upi
Encoding: 1114150 -1 55
Width: 1024
GlyphClass: 1
Flags: W
LayerCount: 2
Fore
SplineSet
362.2421875 -19.9111328125 m 4,0,1
 306.315429688 -4.853515625 306.315429688 -4.853515625 266.931640625 37.21875 c 4,2,3
 228.99609375 77.7861328125 228.99609375 77.7861328125 232.435546875 145.932617188 c 4,4,5
 234.766601562 191.932617188 234.766601562 191.932617188 257.119140625 215.206054688 c 132,-1,6
 279.432617188 238.478515625 279.432617188 238.478515625 296.125976562 272.373046875 c 4,7,8
 332.239257812 345.8203125 332.239257812 345.8203125 386.69921875 374.506835938 c 4,9,10
 403.298828125 383.249023438 403.298828125 383.249023438 419.145507812 383.249023438 c 4,11,12
 436.064453125 383.249023438 436.064453125 383.249023438 421.852539062 438.686523438 c 4,13,14
 416.326171875 460.229492188 416.326171875 460.229492188 416.08203125 586.5390625 c 6,15,-1
 415.856445312 712.810546875 l 5,16,-1
 403.053710938 697.43359375 l 6,17,18
 390.233398438 682 390.233398438 682 372.825195312 647.50390625 c 4,19,20
 345.19140625 592.76171875 345.19140625 592.76171875 294.922851562 600.939453125 c 4,21,22
 256.272460938 607.217773438 256.272460938 607.217773438 251.94921875 649.044921875 c 4,23,24
 249.185546875 675.852539062 249.185546875 675.852539062 269.58203125 709.501953125 c 4,25,26
 351.357421875 844.421875 351.357421875 844.421875 442.13671875 891.982421875 c 4,27,28
 492.686523438 918.469726562 492.686523438 918.469726562 573.333984375 848.557617188 c 4,29,30
 610.405273438 816.44921875 610.405273438 816.44921875 648.002929688 796.578125 c 4,31,32
 699.624023438 769.263671875 699.624023438 769.263671875 699.624023438 728.357421875 c 4,33,34
 699.624023438 644.928710938 699.624023438 644.928710938 573.728515625 720.913085938 c 4,35,36
 530.999023438 746.686523438 530.999023438 746.686523438 522.896484375 746.686523438 c 132,-1,37
 514.813476562 746.686523438 514.813476562 746.686523438 514.869140625 625.0390625 c 4,38,39
 514.907226562 496.00390625 514.907226562 496.00390625 530.491210938 403.26953125 c 4,40,41
 533.856445312 383.249023438 533.856445312 383.249023438 569.235351562 383.249023438 c 4,42,43
 609.37109375 383.249023438 609.37109375 383.249023438 689.171875 335.330078125 c 4,44,45
 776.849609375 282.674804688 776.849609375 282.674804688 789.276367188 233.196289062 c 4,46,47
 793.2421875 217.254882812 793.2421875 217.254882812 791.099609375 161.967773438 c 132,-1,48
 788.9375 106.642578125 788.9375 106.642578125 764.837890625 81.9599609375 c 132,-1,49
 740.71875 57.2958984375 740.71875 57.2958984375 656.161132812 13.9267578125 c 6,50,-1
 571.5859375 -29.4609375 l 5,51,-1
 483.13671875 -29.06640625 l 6,52,53
 394.688476562 -28.65234375 394.688476562 -28.65234375 362.2421875 -19.9111328125 c 4,0,1
547.692382812 81.9970703125 m 4,54,55
 653.172851562 116.606445312 653.172851562 116.606445312 682.25390625 155.594726562 c 4,56,57
 693.703125 170.916015625 693.703125 170.916015625 683.908203125 199.622070312 c 132,-1,58
 674.114257812 228.346679688 674.114257812 228.346679688 657.609375 235.151367188 c 132,-1,59
 640.991210938 242.032226562 640.991210938 242.032226562 607.491210938 263.331054688 c 132,-1,60
 573.87890625 284.686523438 573.87890625 284.686523438 516.22265625 284.686523438 c 4,61,62
 425.236328125 284.686523438 425.236328125 284.686523438 378.446289062 201.5390625 c 4,63,64
 354.21484375 158.452148438 354.21484375 158.452148438 341.149414062 141.833984375 c 132,-1,65
 328.140625 125.25390625 328.140625 125.25390625 338.385742188 109.59375 c 132,-1,66
 348.668945312 93.9345703125 348.668945312 93.9345703125 371.66015625 81.791015625 c 4,67,68
 396.586914062 68.6318359375 396.586914062 68.6318359375 451.987304688 68.70703125 c 132,-1,69
 507.387695312 68.7626953125 507.387695312 68.7626953125 547.692382812 81.9970703125 c 4,54,55
EndSplineSet
Validated: 524321
LCarets2: 2 0 0
Ligature2: "'clig' Kontextuelle Ligaturen in Lateinisch Nachschlagetabelle 0 Subtabelle" u p i
EndChar

